<svg width="24" height="24" viewBox="0 0 24 24" fill="none" xmlns="http://www.w3.org/2000/svg">
<g clip-path="url(#clip0_298_461)">
<path d="M6.2 16.4H7.55V8H6.55L4.5 9.4V10.9L6.2 9.75V16.4ZM12.1 16.5C14.1 16.5 15.1 15.5 15.1 14C15.1 12.9 14.6 12.2 13.6 12C14.4 11.7 14.75 11 14.75 10.1C14.75 8.85 13.9 8 12.1 8C10.25 8 9.35 8.85 9.35 10.2C9.35 11.2 9.85 11.8 10.5 12C9.4 12.3 9.1 13.2 9.1 14C9.1 15.55 10.25 16.5 12.1 16.5ZM12.1 15.1C11.1 15.1 10.45 14.75 10.45 13.8C10.45 13 11 12.6 12.1 12.6C13.1 12.6 13.75 12.95 13.75 13.85C13.75 14.7 13.25 15.1 12.1 15.1ZM12.1 11.5C11.1 11.5 10.65 11 10.65 10.45C10.65 9.75 11.1 9.45 12.1 9.45C13.1 9.45 13.45 9.75 13.45 10.45C13.45 11.05 13.05 11.45 12.1 11.45V11.5ZM18.65 14.8H19.55V12.8H21.5V11.85H19.55V9.85H18.65V11.85H16.75V12.8H18.65V14.8Z" fill="#F9F9F9"/>
<path d="M12 23.5C18.3513 23.5 23.5 18.3513 23.5 12C23.5 5.64873 18.3513 0.5 12 0.5C5.64873 0.5 0.5 5.64873 0.5 12C0.5 18.3513 5.64873 23.5 12 23.5Z" stroke="#F9F9F9"/>
</g>
<defs>
<clipPath id="clip0_298_461">
<rect width="24" height="24" fill="white"/>
</clipPath>
</defs>
</svg>
