<svg width="24" height="24" viewBox="0 0 24 24" fill="none" xmlns="http://www.w3.org/2000/svg">
<g clip-path="url(#clip0_298_424)">
<g clip-path="url(#clip1_298_424)">
<g clip-path="url(#clip2_298_424)">
<mask id="mask0_298_424" style="mask-type:luminance" maskUnits="userSpaceOnUse" x="0" y="0" width="24" height="24">
<path d="M0.23999 0.47998H23.28V23.52H0.23999V0.47998Z" fill="white"/>
</mask>
<g mask="url(#mask0_298_424)">
<mask id="mask1_298_424" style="mask-type:luminance" maskUnits="userSpaceOnUse" x="0" y="0" width="24" height="24">
<path d="M23.28 0.47998H0.23999V23.52H23.28V0.47998Z" fill="white"/>
</mask>
<g mask="url(#mask1_298_424)">
<path d="M23.28 12C23.28 10.4872 22.982 8.98914 22.4031 7.59147C21.8241 6.1938 20.9756 4.92384 19.9059 3.85411C18.8361 2.78438 17.5662 1.93582 16.1685 1.35689C14.7708 0.777954 13.2728 0.47998 11.76 0.47998C10.2472 0.47998 8.74915 0.777954 7.35148 1.35689C5.95381 1.93582 4.68385 2.78438 3.61412 3.85411C2.54439 4.92384 1.69583 6.1938 1.1169 7.59147C0.537964 8.98914 0.23999 10.4872 0.23999 12C0.23999 15.0553 1.4537 17.9854 3.61412 20.1459C5.77454 22.3063 8.7047 23.52 11.76 23.52C14.8153 23.52 17.7454 22.3063 19.9059 20.1459C22.0663 17.9854 23.28 15.0553 23.28 12Z" fill="white"/>
<path d="M12.6049 17.088C7.4113 17.088 4.2529 13.488 4.1377 7.48804H6.7681C6.8449 11.904 8.85129 13.7664 10.3873 14.1408V7.49764H12.9121V11.2896C14.3905 11.1264 15.9361 9.39844 16.4641 7.49764H18.9409C18.7501 8.47564 18.3613 9.40429 17.7983 10.2265C17.2354 11.0486 16.5101 11.7469 15.6673 12.2784C16.608 12.7672 17.4357 13.4478 18.0971 14.2762C18.7585 15.1046 19.2389 16.0625 19.5073 17.088H16.8001C16.2241 15.264 14.8129 13.8528 12.9217 13.6608V17.088H12.6145H12.6049Z" fill="#171717"/>
</g>
</g>
</g>
</g>
</g>
<defs>
<clipPath id="clip0_298_424">
<rect width="24" height="24" fill="white"/>
</clipPath>
<clipPath id="clip1_298_424">
<rect width="24" height="24" fill="white"/>
</clipPath>
<clipPath id="clip2_298_424">
<rect width="24" height="23.04" fill="white" transform="translate(0 0.47998)"/>
</clipPath>
</defs>
</svg>
