<svg width="24" height="24" viewBox="0 0 24 24" fill="none" xmlns="http://www.w3.org/2000/svg">
<g clip-path="url(#clip0_298_446)">
<g clip-path="url(#clip1_298_446)">
<g clip-path="url(#clip2_298_446)">
<mask id="mask0_298_446" style="mask-type:luminance" maskUnits="userSpaceOnUse" x="0" y="0" width="24" height="24">
<path d="M0.23999 0.47998H23.28V23.52H0.23999V0.47998Z" fill="white"/>
</mask>
<g mask="url(#mask0_298_446)">
<mask id="mask1_298_446" style="mask-type:luminance" maskUnits="userSpaceOnUse" x="0" y="0" width="24" height="24">
<path d="M23.28 0.47998H0.23999V23.52H23.28V0.47998Z" fill="white"/>
</mask>
<g mask="url(#mask1_298_446)">
<path d="M23.28 12C23.28 10.4872 22.982 8.98914 22.4031 7.59147C21.8241 6.1938 20.9756 4.92384 19.9059 3.85411C18.8361 2.78438 17.5662 1.93582 16.1685 1.35689C14.7708 0.777954 13.2728 0.47998 11.76 0.47998C10.2472 0.47998 8.74915 0.777954 7.35148 1.35689C5.95381 1.93582 4.68385 2.78438 3.61412 3.85411C2.54439 4.92384 1.69583 6.1938 1.1169 7.59147C0.537964 8.98914 0.23999 10.4872 0.23999 12C0.23999 15.0553 1.4537 17.9854 3.61412 20.1459C5.77454 22.3063 8.7047 23.52 11.76 23.52C14.8153 23.52 17.7454 22.3063 19.9059 20.1459C22.0663 17.9854 23.28 15.0553 23.28 12Z" fill="white"/>
<path d="M19.6512 8.04479C19.5562 7.70074 19.3735 7.38722 19.1212 7.13483C18.8688 6.88244 18.5552 6.69982 18.2112 6.60479C16.9056 6.23999 11.76 6.23999 11.76 6.23999C11.76 6.23999 6.60479 6.23999 5.31839 6.58559C4.62719 6.77759 4.05119 7.34399 3.86879 8.04479C3.52319 9.33119 3.52319 12.0096 3.52319 12.0096C3.52319 12.0096 3.52319 14.6976 3.86879 15.9648C4.06079 16.6656 4.60799 17.2224 5.30879 17.4144C6.61439 17.7696 11.76 17.7696 11.76 17.7696C11.76 17.7696 16.9056 17.7696 18.192 17.424C18.9024 17.232 19.4592 16.6848 19.6416 15.984C19.9872 14.688 19.9872 12.0192 19.9872 12.0192C19.9872 12.0192 19.9968 9.33119 19.6416 8.04479H19.6512Z" fill="#171717"/>
<path d="M10.1184 14.4767L14.4 11.9999L10.1184 9.53271V14.4671V14.4767Z" fill="white"/>
</g>
</g>
</g>
</g>
</g>
<defs>
<clipPath id="clip0_298_446">
<rect width="24" height="24" fill="white"/>
</clipPath>
<clipPath id="clip1_298_446">
<rect width="24" height="24" fill="white"/>
</clipPath>
<clipPath id="clip2_298_446">
<rect width="24" height="23.04" fill="white" transform="translate(0 0.47998)"/>
</clipPath>
</defs>
</svg>
