<svg width="24" height="24" viewBox="0 0 24 24" fill="none" xmlns="http://www.w3.org/2000/svg">
<path d="M24 12C24 10.4241 23.6896 8.86371 23.0866 7.4078C22.4835 5.95189 21.5996 4.62902 20.4853 3.51472C19.371 2.40042 18.0481 1.5165 16.5922 0.913446C15.1363 0.310389 13.5759 0 12 0C10.4241 0 8.86371 0.310389 7.4078 0.913446C5.95189 1.5165 4.62902 2.40042 3.51472 3.51472C2.40042 4.62902 1.5165 5.95189 0.913446 7.4078C0.310389 8.86371 -2.34822e-08 10.4241 0 12C4.74244e-08 15.1826 1.26428 18.2348 3.51472 20.4853C5.76516 22.7357 8.8174 24 12 24C15.1826 24 18.2348 22.7357 20.4853 20.4853C22.7357 18.2348 24 15.1826 24 12Z" fill="white"/>
<path d="M12 6.8V13.6M14.5714 8.4L12 6L9.42857 8.4M6 12.4V16.4C6 16.8243 6.18061 17.2313 6.5021 17.5314C6.82359 17.8314 7.25963 18 7.71429 18H16.2857C16.7404 18 17.1764 17.8314 17.4979 17.5314C17.8194 17.2313 18 16.8243 18 16.4V12.4" stroke="#171717" stroke-width="2" stroke-linecap="round" stroke-linejoin="round"/>
</svg>
