<svg width="333" height="100" viewBox="0 0 333 100" fill="none" xmlns="http://www.w3.org/2000/svg">
<mask id="mask0_358_11" style="mask-type:alpha" maskUnits="userSpaceOnUse" x="0" y="0" width="333" height="100">
<rect width="333" height="100" fill="#D9D9D9"/>
</mask>
<g mask="url(#mask0_358_11)">
<path d="M128.771 89.0282L128.345 89.0567C127.486 89.1925 126.799 89.5903 126.284 90.2501C125.779 91.0565 125.561 91.6965 125.629 92.1701C125.561 92.6436 125.779 93.2839 126.284 94.0903C126.799 94.7498 127.486 95.1476 128.345 95.2837L128.771 95.3122L187.176 95.3128C186.401 94.3441 186.117 92.249 186.325 89.0282H128.771Z" fill="#C3E0F7"/>
<path d="M115.001 81.5419V28.3997C115.001 26.6642 116.407 25.2575 118.143 25.2575C119.878 25.2575 121.285 26.6642 121.285 28.3997V81.5417C121.285 83.2771 119.878 84.6838 118.143 84.6838C116.407 84.6838 115.001 83.2771 115.001 81.5419Z" fill="#C3E0F7"/>
<path d="M128.772 14.6291H139.4C141.135 14.6294 142.542 16.0364 142.542 17.7716C142.542 19.5067 141.135 20.9137 139.4 20.9135H128.771C127.036 20.9132 125.629 19.5061 125.629 17.771C125.629 16.0355 127.036 14.6288 128.772 14.6291Z" fill="#C3E0F7"/>
<path d="M150.028 4.00067H171.285C173.02 4.00096 174.427 5.40769 174.427 7.14315C174.427 8.8786 173.02 10.2853 171.285 10.2853H150.028C148.293 10.285 146.886 8.87831 146.886 7.14285C146.886 5.4074 148.293 4.00067 150.028 4.00067Z" fill="#C3E0F7"/>
<path d="M181.914 14.6291H192.542C194.277 14.6294 195.684 16.0364 195.684 17.7716C195.684 19.507 194.277 20.9137 192.542 20.9135H181.913C180.178 20.9132 178.771 19.5061 178.771 17.771C178.772 16.0358 180.178 14.6288 181.914 14.6291Z" fill="#C3E0F7"/>
<path d="M203.17 25.2575C201.435 25.2575 200.028 26.6642 200.028 28.3997V54.9194C200.95 54.3782 202.024 54.0681 203.17 54.0681C204.317 54.0681 205.39 54.3785 206.313 54.9194V28.3997C206.313 26.6642 204.906 25.2575 203.17 25.2575Z" fill="#C3E0F7"/>
<path d="M128.587 95.307L126.356 95.1759C126.211 95.1674 126.067 95.1488 125.925 95.1202L123.956 94.7265C123.782 94.6915 123.611 94.642 123.445 94.5781L121.739 93.9221C121.544 93.847 121.356 93.7525 121.18 93.6403L119.736 92.7217C119.543 92.5988 119.364 92.4548 119.202 92.2928L118.021 91.1119C117.859 90.9499 117.715 90.7703 117.592 90.5771L116.673 89.1337C116.561 88.9571 116.467 88.77 116.391 88.5747L115.735 86.869C115.672 86.7029 115.622 86.5318 115.587 86.3572L115.193 84.3889C115.165 84.2464 115.146 84.1022 115.138 83.9573L115.007 81.7267C114.905 79.9945 116.226 78.5073 117.959 78.4056C119.691 78.3036 121.178 79.6255 121.28 81.3578L121.411 83.5884L121.355 83.1568L121.749 85.1251L121.601 84.6133L122.257 86.3191L121.975 85.7601L122.893 87.2035L122.464 86.6688L123.645 87.8496L123.111 87.4207L124.554 88.3392L123.995 88.0574L125.701 88.7134L125.189 88.5651L127.157 88.9588L126.726 88.9032L128.956 89.0343C130.689 89.1363 132.01 90.6232 131.908 92.3554C131.806 94.0877 130.32 95.4096 128.587 95.3076L128.587 95.307Z" fill="#C3E0F7"/>
<path d="M115.006 28.2152L115.137 25.9846C115.146 25.8395 115.164 25.6952 115.193 25.553L115.587 23.5847C115.622 23.4101 115.671 23.2391 115.735 23.0729L116.391 21.3672C116.466 21.172 116.561 20.9849 116.673 20.8083L117.591 19.3648C117.714 19.1713 117.858 18.9921 118.02 18.83L119.201 17.6492C119.363 17.4871 119.543 17.3432 119.736 17.2202L121.18 16.3016C121.356 16.1894 121.543 16.095 121.739 16.0198L123.444 15.3638C123.61 15.3 123.781 15.2501 123.956 15.2154L125.924 14.8217C126.067 14.7932 126.211 14.7748 126.356 14.7661L128.587 14.6349C130.319 14.5329 131.806 15.8548 131.908 17.5871C132.009 19.3193 130.688 20.8065 128.955 20.9082L126.725 21.0394L127.156 20.9837L125.188 21.3774L125.7 21.2291L123.994 21.8851L124.553 21.6033L123.11 22.5219L123.644 22.0929L122.464 23.2737L122.893 22.739L121.974 24.1824L122.256 23.6235L121.6 25.3292L121.748 24.8174L121.354 26.7857L121.41 26.3541L121.279 28.5847C121.177 30.317 119.69 31.6389 117.958 31.5369C116.226 31.4349 114.904 29.948 115.006 28.2158L115.006 28.2152Z" fill="#C3E0F7"/>
<path d="M136.263 17.5868L136.394 15.3562C136.403 15.2111 136.421 15.0668 136.45 14.9246L136.844 12.9563C136.879 12.7817 136.928 12.6107 136.992 12.4445L137.648 10.7388C137.723 10.5436 137.818 10.3565 137.93 10.1799L138.848 8.73641C138.971 8.5429 139.115 8.36367 139.277 8.20163L140.458 7.02077C140.62 6.85873 140.8 6.71477 140.993 6.59178L142.436 5.6732C142.613 5.561 142.8 5.46658 142.995 5.39139L144.701 4.73538C144.867 4.67156 145.038 4.62173 145.213 4.58705L147.181 4.19333C147.324 4.16477 147.468 4.14641 147.613 4.13766L149.844 4.00623C151.576 3.90423 153.063 5.22615 153.165 6.9584C153.267 8.69065 151.945 10.1778 150.213 10.2795L147.982 10.4107L148.414 10.355L146.445 10.7487L146.957 10.6004L145.251 11.2564L145.81 10.9746L144.367 11.8932L144.902 11.4642L143.721 12.645L144.15 12.1103L143.231 13.5537L143.513 12.9948L142.857 14.7005L143.005 14.1887L142.612 16.1571L142.667 15.7254L142.536 17.956C142.434 19.6883 140.947 21.0102 139.215 20.9082C137.483 20.8062 136.161 19.3193 136.263 17.5871L136.263 17.5868Z" fill="#C3E0F7"/>
<path d="M171.47 4.0062L173.7 4.13734C173.845 4.1458 173.99 4.16445 174.132 4.19301L176.1 4.58673C176.275 4.6217 176.446 4.67124 176.612 4.73506L178.318 5.39107C178.513 5.46626 178.7 5.56068 178.877 5.67288L180.32 6.59146C180.514 6.71445 180.693 6.85841 180.855 7.02045L182.036 8.20132C182.198 8.36335 182.342 8.54287 182.465 8.73609L183.383 10.1795C183.495 10.3561 183.59 10.5432 183.665 10.7385L184.321 12.4442C184.385 12.6103 184.435 12.7814 184.469 12.956L184.863 14.9243C184.892 15.0668 184.91 15.211 184.919 15.3559L185.05 17.5865C185.152 19.3187 183.83 20.8059 182.098 20.9076C180.365 21.0096 178.878 19.6877 178.777 17.9554L178.645 15.7248L178.701 16.1564L178.307 14.1881L178.456 14.6999L177.8 12.9942L178.082 13.5531L177.163 12.1097L177.592 12.6444L176.411 11.4636L176.946 11.8925L175.502 10.974L176.061 11.2558L174.356 10.5998L174.867 10.7481L172.899 10.3544L173.331 10.4101L171.1 10.2789C169.368 10.1769 168.046 8.69004 168.148 6.95779C168.25 5.22554 169.737 3.90362 171.469 4.00562L171.47 4.0062Z" fill="#C3E0F7"/>
<path d="M192.726 14.6346L194.957 14.7658C195.102 14.7742 195.246 14.7929 195.389 14.8214L197.357 15.2151C197.531 15.2501 197.703 15.2997 197.869 15.3635L199.574 16.0195C199.77 16.0947 199.957 16.1891 200.133 16.3013L201.577 17.2199C201.77 17.3429 201.95 17.4868 202.112 17.6489L203.292 18.8297C203.454 18.9918 203.598 19.1713 203.721 19.3645L204.64 20.808C204.752 20.9846 204.847 21.1717 204.922 21.3669L205.578 23.0726C205.642 23.2388 205.691 23.4098 205.726 23.5844L206.12 25.5527C206.148 25.6952 206.167 25.8395 206.176 25.9843L206.307 28.2149C206.409 29.9472 205.087 31.4343 203.355 31.536C201.622 31.638 200.135 30.3161 200.033 28.5838L199.902 26.3533L199.958 26.7849L199.564 24.8166L199.713 25.3283L199.057 23.6226L199.338 24.1815L198.42 22.7381L198.849 23.2729L197.668 22.092L198.203 22.521L196.759 21.6024L197.318 21.8842L195.612 21.2282L196.124 21.3765L194.156 20.9828L194.587 21.0385L192.357 20.9073C190.625 20.8053 189.303 19.3185 189.405 17.5862C189.507 15.854 190.994 14.532 192.726 14.634L192.726 14.6346Z" fill="#C3E0F7"/>
<path d="M185.055 49.6565C185.055 63.1318 174.132 74.0554 160.656 74.0554C147.181 74.0554 136.258 63.1318 136.258 49.6565C136.258 36.1811 147.181 25.2575 160.656 25.2575C174.132 25.2575 185.055 36.1811 185.055 49.6565ZM178.771 49.6565C178.771 39.652 170.661 31.5418 160.657 31.5418C150.652 31.5418 142.542 39.652 142.542 49.6565C142.542 59.6609 150.652 67.7711 160.657 67.7711C170.661 67.7711 178.771 59.6609 178.771 49.6565Z" fill="#C3E0F7"/>
<path d="M195.744 81.5419V92.1703C195.744 93.9387 194.31 95.3723 192.542 95.3723C190.774 95.3723 189.34 93.9387 189.34 92.1703V81.5419C189.34 79.7736 190.774 78.34 192.542 78.34C194.31 78.34 195.744 79.7736 195.744 81.5419Z" fill="#C3E0F7"/>
<path d="M192.542 88.9681H213.799C215.567 88.9681 217.001 90.4017 217.001 92.1703C217.001 93.939 215.567 95.3723 213.799 95.3723H192.542C190.774 95.3723 189.34 93.9384 189.34 92.1703C189.34 90.4022 190.774 88.9684 192.542 88.9684V88.9681Z" fill="#C3E0F7"/>
<path d="M210.597 92.1703V81.5419C210.597 79.7736 212.03 78.34 213.798 78.34C215.567 78.34 217 79.7736 217 81.5419V92.1703C217 93.9387 215.567 95.3723 213.798 95.3723C212.03 95.3723 210.597 93.9387 210.597 92.1703Z" fill="#C3E0F7"/>
<path d="M199.968 81.5419V60.2851C199.968 58.5168 201.402 57.0832 203.17 57.0832C204.938 57.0832 206.372 58.5168 206.372 60.2851V81.5419C206.372 83.3103 204.938 84.7439 203.17 84.7439C201.402 84.7439 199.968 83.3103 199.968 81.5419Z" fill="#C3E0F7"/>
<path d="M190.278 68.6491L200.906 58.0207C202.157 56.7702 204.184 56.7702 205.434 58.0207C206.685 59.2713 206.685 61.2984 205.434 62.549L194.806 73.1774C193.555 74.4279 191.528 74.4279 190.278 73.1774C189.027 71.9268 189.027 69.8997 190.278 68.6491Z" fill="#C3E0F7"/>
<path d="M205.434 58.0207L216.063 68.6491C217.313 69.8997 217.313 71.9271 216.063 73.1774C214.812 74.4276 212.785 74.4279 211.535 73.1774L200.906 62.549C199.656 61.2984 199.656 59.2713 200.906 58.0207C202.157 56.7702 204.184 56.7702 205.434 58.0207Z" fill="#C3E0F7"/>
</g>
</svg>
