<svg width="115" height="115" viewBox="0 0 115 115" fill="none" xmlns="http://www.w3.org/2000/svg">
<path d="M64.6351 37.2629L64.9471 38.6442L66.1444 37.8881L94.5109 19.9754L76.5982 48.3419L75.8421 49.5392L77.2234 49.8512L109.948 57.2432L77.2234 64.6351L75.8421 64.9471L76.5982 66.1444L94.5109 94.5109L66.1444 76.5982L64.9471 75.8421L64.6351 77.2234L57.2432 109.948L49.8512 77.2234L49.5392 75.8421L48.3419 76.5982L19.9754 94.5109L37.8881 66.1444L38.6442 64.9471L37.2629 64.6351L4.53858 57.2432L37.2629 49.8512L38.6442 49.5392L37.8881 48.3419L19.9754 19.9754L48.3419 37.8881L49.5392 38.6442L49.8512 37.2629L57.2432 4.53858L64.6351 37.2629Z" stroke="#FF0D65" stroke-width="2"/>
</svg>
