<svg width="16" height="17" viewBox="0 0 16 17" fill="none" xmlns="http://www.w3.org/2000/svg">
<mask id="mask0_298_45" style="mask-type:alpha" maskUnits="userSpaceOnUse" x="0" y="0" width="16" height="17">
<g clip-path="url(#clip0_298_45)">
<path fill-rule="evenodd" clip-rule="evenodd" d="M6.46964 3.73606C6.32901 3.87671 6.25 4.06746 6.25 4.26636C6.25 4.46526 6.32901 4.65601 6.46964 4.79666L10.4392 8.76636L6.46964 12.7361C6.33001 12.8769 6.25187 13.0674 6.25231 13.2657C6.25276 13.4641 6.33175 13.6541 6.47201 13.7944C6.61226 13.9346 6.80236 14.0136 7.00071 14.014C7.19905 14.0145 7.38948 13.9363 7.53034 13.7967L12.0302 9.29666C12.1709 9.15601 12.2499 8.96526 12.2499 8.76636C12.2499 8.56746 12.1709 8.37671 12.0302 8.23606L7.53024 3.73606C7.38959 3.59542 7.19884 3.51642 6.99994 3.51642C6.80104 3.51642 6.61029 3.59542 6.46964 3.73606Z" fill="black"/>
</g>
</mask>
<g mask="url(#mask0_298_45)">
<rect y="0.766357" width="16" height="16" fill="white"/>
</g>
<defs>
<clipPath id="clip0_298_45">
<rect width="16" height="16" fill="white" transform="translate(0 0.766357)"/>
</clipPath>
</defs>
</svg>
