<svg width="174" height="21" viewBox="0 0 174 21" fill="none" xmlns="http://www.w3.org/2000/svg">
<path d="M19.5982 8.30769L19.6906 10.1538C19.6981 12.4188 18.9481 14.6213 17.5598 16.411C16.1715 18.2007 14.2247 19.4748 12.029 20.0308C9.82718 20.5268 7.52156 20.2464 5.50282 19.237C3.48408 18.2276 1.87637 16.5514 0.952091 14.4923C-0.00169637 12.4264 -0.247291 10.1036 0.253385 7.88392C0.754061 5.66426 1.97304 3.67178 3.72132 2.21538C7.41363 -0.738461 12.4906 -0.738461 16.0906 2.21538L14.1521 3.69231C12.7619 2.70839 11.0744 2.23524 9.37534 2.35299C7.67628 2.47075 6.07016 3.17218 4.82901 4.33846C3.55901 5.52904 2.71025 7.10004 2.41057 8.81485C2.1109 10.5297 2.37654 12.2954 3.16748 13.8462C3.93323 15.3599 5.191 16.5683 6.73423 17.2728C8.27746 17.9773 10.0144 18.1361 11.6598 17.7231C15.0752 16.8 17.4752 13.7538 17.4752 10.1538V9.96923L19.5982 8.30769ZM34.3675 13.4769C33.7213 13.9385 32.8906 14.1231 32.1521 14.1231C31.6193 14.1364 31.0896 14.0397 30.5958 13.8391C30.1021 13.6385 29.6551 13.3382 29.2826 12.9571C28.9101 12.5759 28.6202 12.1221 28.431 11.6239C28.2418 11.1257 28.1573 10.5938 28.1829 10.0615C28.1829 7.75385 29.8444 6.09231 32.1521 6.09231C33.0752 6.09231 33.8136 6.27692 34.4598 6.83077L36.3059 5.44615L36.2136 5.35385C35.0666 4.35226 33.5817 3.82428 32.0598 3.87692C30.3943 3.82685 28.7738 4.42213 27.5367 5.53846C26.429 6.64615 25.6906 8.30769 25.6906 9.96923C25.6906 11.8154 26.429 13.3846 27.5367 14.5846C28.6444 15.6923 30.3059 16.3385 32.0598 16.3385C33.9059 16.3385 35.4752 15.6923 36.6752 14.4923L34.9213 13.2L34.3675 13.4769Z" fill="white"/>
<path fill-rule="evenodd" clip-rule="evenodd" d="M41.2905 8.76922H44.429C47.1982 8.76922 48.7675 9.96922 48.7675 12.3692C48.7675 14.7692 47.1059 16.0615 44.1521 16.0615H38.7059V4.06152H48.8598L46.2752 5.99998H41.2905V8.76922ZM41.2905 14.1231H43.9675C45.5367 14.1231 46.3675 13.5692 46.3675 12.4615C46.3675 11.3538 45.629 10.8 43.9675 10.8H41.2905V14.1231Z" fill="white"/>
<path d="M60.029 3.96924L57.4444 6.00001H53.7521V8.95385H59.106V11.0769H53.5675V14.2154H60.029V16.2462H51.0752V3.96924H60.029Z" fill="white"/>
<path fill-rule="evenodd" clip-rule="evenodd" d="M67.4137 3.96923H62.5214V16.1538H65.0137V12.7385H67.4137C70.5521 12.7385 72.4906 10.9846 72.4906 8.30769C72.4906 5.63077 70.5521 3.96923 67.4137 3.96923ZM67.3214 10.7077H65.0137V6.09231H67.4137C68.9829 6.09231 69.906 6.83077 69.906 8.30769C69.906 9.87692 68.9829 10.7077 67.4137 10.7077H67.3214ZM107.752 3.87692C111.537 3.87692 114.121 6.18461 114.121 10.1538C114.121 13.8462 111.629 16.4308 107.752 16.4308C103.968 16.4308 101.383 14.1231 101.383 10.1538C101.383 6.46154 103.875 3.87692 107.844 3.87692H107.752ZM107.752 14.4923C110.337 14.4923 111.906 12.6462 111.906 10.1538C111.906 7.75385 110.429 5.90769 107.752 5.81538C105.168 5.81538 103.691 7.66154 103.691 10.1538C103.691 12.5538 105.075 14.4 107.752 14.4923ZM133.414 3.87692C137.291 3.87692 139.875 6.18461 139.875 10.1538C139.875 13.8462 137.291 16.4308 133.414 16.4308C129.721 16.4308 127.137 14.1231 127.137 10.1538C127.137 6.46154 129.629 3.87692 133.414 3.87692ZM133.414 14.4923C135.998 14.4923 137.568 12.6462 137.568 10.1538C137.568 7.75385 136.183 5.90769 133.414 5.81538C130.921 5.81538 129.352 7.66154 129.352 10.1538C129.352 12.5538 130.737 14.4 133.506 14.4923H133.414ZM141.998 16.2462V4.06154H147.168C149.844 4.06154 151.137 4.98461 151.137 7.10769C151.137 8.49231 150.583 9.41538 149.383 9.87692C150.86 10.1538 151.506 11.0769 151.506 12.6462C151.506 15.2308 149.752 16.3385 146.891 16.3385H141.998V16.2462ZM146.891 9.23077C148.183 9.23077 149.014 8.58461 149.014 7.56923C149.014 6.64615 148.368 6 146.891 6H144.121V9.23077H146.891ZM146.983 14.3077C148.644 14.3077 149.383 13.7538 149.383 12.4615C149.383 11.3538 148.46 10.8923 147.075 10.8923H144.029V14.3077H146.891H146.983ZM156.029 7.84615H157.598C161.383 7.84615 162.952 9.23077 162.952 12C162.952 14.7692 161.106 16.2462 157.691 16.2462H153.998V4.06154H156.029V7.75385V7.84615ZM156.029 9.87692V14.3077H157.875C159.721 14.3077 160.829 13.5692 160.829 11.9077C160.829 10.4308 159.906 9.87692 157.783 9.87692H156.029Z" fill="white"/>
<path d="M167.291 10.9846H172.829V8.95383H167.291V5.99998H173.383V4.06152H165.167V16.2461H173.567V14.3077H167.291V10.9846Z" fill="white"/>
<path fill-rule="evenodd" clip-rule="evenodd" d="M118.46 16.2461V12.4615H120.306C123.721 12.4615 125.567 10.9846 125.567 8.21537C125.567 5.44614 123.998 4.06152 120.306 4.06152H116.337V16.2461H118.46ZM118.46 10.4308V5.99998H120.491C122.521 5.99998 123.444 6.64614 123.444 8.12306C123.444 9.7846 122.429 10.4308 120.398 10.4308H118.46ZM89.3829 14.3077C90.1213 12.6461 90.5829 10.2461 90.6752 6.55383V4.06152H98.9829V14.2154H100.367V18.5538H98.3367V16.2461H90.029V18.5538H88.1829V14.3077H89.3829ZM91.5059 14.3077H96.8598V5.99998H92.6136V6.64614C92.6136 9.7846 92.1521 12.3692 91.5059 14.3077Z" fill="white"/>
<path d="M78.1213 4.89231C78.7675 4.43077 80.1521 3.87692 81.9982 3.87692C84.7675 3.87692 86.429 4.8 86.429 6.92308C86.429 8.4 85.6905 9.32308 84.3059 9.78462C86.1521 10.0615 87.0752 11.0769 87.0752 12.6462C87.0752 14.7692 85.4136 16.4308 82.2752 16.4308C80.0598 16.4308 78.3982 15.6923 77.8444 14.9538V12.1846C78.5829 13.4769 80.0598 14.4923 82.2752 14.4C83.6598 14.4 84.8598 13.7538 84.8598 12.5538C84.8598 11.4462 84.029 10.9846 82.2752 10.9846H80.429V9.13846H82.2752C83.7521 9.13846 84.3059 8.4 84.3059 7.47692C84.3059 6.36923 83.2906 5.90769 81.9982 5.90769C81.2344 5.89894 80.4804 6.07989 79.8038 6.43432C79.1271 6.78875 78.549 7.30558 78.1213 7.93846V4.89231ZM17.6598 3.96923C18.1213 4.61538 18.5829 5.26154 18.8598 6L9.90593 12.7385L6.21362 10.3385V7.47692L9.90593 9.87692L17.5675 3.96923H17.6598Z" fill="white"/>
</svg>
