<svg width="59" height="59" viewBox="0 0 59 59" fill="none" xmlns="http://www.w3.org/2000/svg">
<path d="M29.0895 2.33913L34.6087 14.01L34.9962 14.8294L35.8496 14.524L48.0048 10.1741L43.6549 22.3293L43.3495 23.1828L44.1689 23.5703L55.8398 29.0895L44.1689 34.6087L43.3495 34.9962L43.6549 35.8496L48.0048 48.0048L35.8496 43.6549L34.9962 43.3495L34.6087 44.1689L29.0895 55.8398L23.5703 44.1689L23.1828 43.3495L22.3293 43.6549L10.1741 48.0048L14.524 35.8496L14.8294 34.9962L14.01 34.6087L2.33913 29.0895L14.01 23.5703L14.8294 23.1828L14.524 22.3293L10.1741 10.1741L22.3293 14.524L23.1828 14.8294L23.5703 14.01L29.0895 2.33913Z" fill="#FF0D65" stroke="#FF0D65" stroke-width="2"/>
</svg>
