<svg width="158" height="19" viewBox="0 0 158 19" fill="none" xmlns="http://www.w3.org/2000/svg">
<g clip-path="url(#clip0_301_66)">
<path fill-rule="evenodd" clip-rule="evenodd" d="M103.866 9.04358C103.866 5.52996 101.556 3.43082 98.0879 3.41577C94.5742 3.41577 92.3096 5.72558 92.3096 9.01348C92.3096 12.5497 94.6194 14.6413 98.0879 14.6413C101.601 14.6413 103.866 12.324 103.866 9.04358ZM101.835 9.02853C101.835 11.3158 100.405 12.8582 98.1029 12.8582C95.6351 12.8356 94.341 11.1578 94.341 9.02101C94.341 6.76387 95.763 5.21396 98.0728 5.19891C100.541 5.21396 101.835 6.8993 101.835 9.02853ZM127.25 9.04358C127.25 5.52996 124.94 3.43082 121.472 3.41577C117.958 3.41577 115.686 5.72558 115.686 9.01348C115.686 12.5497 118.003 14.6413 121.472 14.6413C124.985 14.6413 127.25 12.324 127.25 9.04358ZM125.219 9.02853C125.219 11.3158 123.782 12.8582 121.487 12.8582C119.019 12.8356 117.725 11.1578 117.725 9.02101C117.725 6.76387 119.139 5.21396 121.457 5.19891C123.925 5.21396 125.219 6.8993 125.219 9.02853ZM129.267 14.4682V3.5813H133.954C136.361 3.5813 137.595 4.48415 137.595 6.28987C137.595 7.53129 137.099 8.35891 135.993 8.79529C137.317 9.02101 137.919 9.87872 137.919 11.2932C137.919 13.5503 136.316 14.4682 133.691 14.4682H129.267ZM133.675 8.18587C134.894 8.18587 135.669 7.64415 135.669 6.7112C135.669 5.83844 135.097 5.37196 133.721 5.37196H131.2V8.18587H133.683H133.675ZM133.818 12.6851C135.293 12.6851 135.978 12.1961 135.978 11.1578C135.978 10.112 135.203 9.7132 133.849 9.7132H131.2V12.6851H133.818ZM143.494 6.97453H142.034V3.5813H140.108V14.4682H143.517C146.662 14.4682 148.354 13.1892 148.354 10.6612C148.354 8.20091 146.917 6.97453 143.494 6.97453ZM142.034 12.6851V8.7652H143.667C145.548 8.7652 146.361 9.27682 146.361 10.6161C146.361 12.0907 145.435 12.6851 143.637 12.6851H142.034Z" fill="#FF0D65"/>
<path d="M152.297 9.75835H157.263V7.96768H152.297V5.37197H157.834V3.5813H150.371V14.4683H158V12.6851H152.297V9.75082V9.75835Z" fill="#FF0D65"/>
<path fill-rule="evenodd" clip-rule="evenodd" d="M107.816 11.0825V14.4683H105.883V3.5813H109.471C112.88 3.5813 114.332 4.80768 114.332 7.26797C114.332 9.80349 112.639 11.0825 109.471 11.0825H107.816ZM107.816 5.36444V9.29187H109.614C111.405 9.29187 112.323 8.69749 112.323 7.22282C112.323 5.88358 111.525 5.37197 109.645 5.37197H107.809L107.816 5.36444ZM81.3776 12.6851C81.9945 11.2029 82.4384 9.14892 82.4911 5.83844L82.5212 3.5813H90.1052V12.6851H91.3541V16.4922H89.5484V14.4683H82.0096V16.4997H80.2039V12.6851H81.3776ZM83.2585 12.6851H88.1716V5.37197H84.2742V5.88358C84.2141 8.72758 83.8755 10.9697 83.2585 12.6851Z" fill="#FF0D65"/>
<path d="M74.6588 3.42334C72.9433 3.42334 71.7019 3.94248 71.0849 4.38639V7.09496C71.4794 6.51111 72.0121 6.03386 72.6356 5.70569C73.2592 5.37751 73.9542 5.20861 74.6588 5.21401C75.7948 5.2441 76.6902 5.65039 76.6902 6.65858C76.6902 7.47115 76.2162 8.14077 74.8243 8.14077H73.2067V9.74334H74.8393C76.5171 9.74334 77.2319 10.1948 77.2319 11.1578C77.2319 12.2638 76.1786 12.8206 74.8694 12.8356C72.8831 12.8507 71.4837 11.9854 70.8141 10.8794V13.272C71.3934 13.9266 72.8831 14.6413 74.8393 14.6263C77.736 14.6112 79.2332 13.1667 79.2332 11.2782C79.2332 9.84867 78.4357 8.97591 76.7654 8.72763C78.0144 8.2762 78.684 7.44105 78.684 6.16953C78.684 4.25096 77.0739 3.43839 74.6588 3.42334Z" fill="#FF0D65"/>
<path d="M29.2601 12.5197C29.9598 12.5272 30.652 12.3541 31.269 12.0156L31.7806 11.7372L33.2853 12.8507C32.749 13.3977 32.1049 13.8272 31.3939 14.1121C30.6829 14.3971 29.9204 14.5312 29.1548 14.506C27.6256 14.5337 26.147 13.9579 25.0393 12.9034C24.5147 12.3786 24.1006 11.7541 23.8215 11.0666C23.5423 10.3791 23.4038 9.64263 23.4141 8.90071C23.4141 7.34329 24.001 5.93633 25.0468 4.95071C26.1734 3.92924 27.6495 3.37975 29.1698 3.41586C30.6595 3.41586 31.9536 3.86729 32.9317 4.725L33.0371 4.81529L31.3743 6.04919C30.7587 5.60773 30.0176 5.37564 29.2601 5.3871C27.161 5.3871 25.6487 6.89186 25.6487 8.95338C25.636 9.42902 25.721 9.90221 25.8986 10.3436C26.0762 10.7851 26.3425 11.1853 26.681 11.5197C27.0196 11.854 27.4232 12.1153 27.8668 12.2873C28.3104 12.4593 28.7847 12.5384 29.2601 12.5197Z" fill="#21A038"/>
<path fill-rule="evenodd" clip-rule="evenodd" d="M40.4029 7.7646H37.5814V5.35698H42.0957L44.5259 3.55127H35.2566V14.3555H40.1019C42.8255 14.3555 44.3905 13.1216 44.3905 10.9697C44.3905 8.9007 42.976 7.7646 40.4029 7.7646ZM40.0041 12.5573H37.5814V9.56279H40.0041C41.4788 9.56279 42.1634 10.0669 42.1634 11.0676C42.1634 12.0757 41.4336 12.5573 40.0041 12.5573Z" fill="#21A038"/>
<path d="M54.6981 3.55122L52.2679 5.35694H48.8822V7.99027H53.8479V9.79599H48.8822V12.5572H54.6981V14.3629H46.5574V3.5437H54.6981V3.55122Z" fill="#21A038"/>
<path fill-rule="evenodd" clip-rule="evenodd" d="M56.8649 3.55127H61.2965C64.1254 3.55127 65.886 5.03346 65.886 7.41851C65.886 9.80356 64.1254 11.3008 61.2965 11.3008H59.1898V14.3555H56.8574V3.55127H56.8649ZM59.1823 9.49508H61.2438C62.7335 9.49508 63.5536 8.76527 63.5536 7.42603C63.5536 6.08679 62.7335 5.34194 61.2438 5.34194H59.1823V9.48756V9.49508Z" fill="#21A038"/>
<path d="M16.0634 3.5061C16.4847 4.05534 16.8534 4.65725 17.1393 5.30429L8.96842 11.361L5.55261 9.20163V6.62096L8.96842 8.77277L16.0634 3.5061Z" fill="#21A038"/>
<path d="M2.06906 9.02858C2.06906 8.9082 2.06906 8.80286 2.08411 8.68248L1.18728e-05 8.57715V9.02858C-0.00386808 11.4227 0.943349 13.7204 2.63335 15.4163L4.09296 13.9341C2.79623 12.6309 2.06852 10.867 2.06906 9.02858Z" fill="url(#paint0_linear_301_66)"/>
<path d="M8.96843 2.0841L9.31452 2.09162L9.41986 0.0150476L8.96843 0C6.48557 0 4.251 1.00819 2.62585 2.64086L4.093 4.12305C4.73066 3.47849 5.49 2.967 6.32694 2.61828C7.16388 2.26956 8.06174 2.09054 8.96843 2.09162V2.0841Z" fill="url(#paint1_linear_301_66)"/>
<path d="M8.9684 15.973L8.6223 15.9655L8.51697 18.0421L8.9684 18.0571C11.4513 18.0571 13.6858 17.0489 15.311 15.4163L13.8438 13.9341C13.2059 14.5783 12.4465 15.0896 11.6096 15.4383C10.7728 15.787 9.87502 15.9662 8.9684 15.9655V15.973Z" fill="url(#paint2_linear_301_66)"/>
<path d="M12.8582 3.29544L14.6037 2.00135C13.0126 0.703723 11.0215 -0.00338976 8.96838 1.22183e-05V2.08411C10.413 2.08411 11.7522 2.53554 12.8582 3.29544Z" fill="url(#paint3_linear_301_66)"/>
<path d="M17.9368 9.02863C17.9368 8.47939 17.8842 7.93768 17.7863 7.41101L15.8602 8.84053V9.02863C15.8602 11.0601 14.9875 12.9034 13.5956 14.1749L14.9875 15.7248C15.9192 14.8763 16.6629 13.8422 17.1709 12.6889C17.6788 11.5356 17.9397 10.2888 17.9368 9.02863Z" fill="#21A038"/>
<path d="M8.96843 15.973C8.00271 15.9733 7.04781 15.7697 6.16619 15.3755C5.28456 14.9814 4.49605 14.4056 3.85224 13.6858L2.31738 15.0852C3.15429 16.0209 4.17937 16.7693 5.32553 17.2815C6.47168 17.7936 7.71306 18.0579 8.96843 18.0571V15.973Z" fill="url(#paint4_linear_301_66)"/>
<path d="M4.34126 3.8823L2.94936 2.3324C2.01766 3.18091 1.27391 4.21507 0.765954 5.36833C0.258 6.52159 -0.00290569 7.76842 2.44087e-05 9.02859H2.06907C2.06833 8.05981 2.27008 7.10158 2.66137 6.21535C3.05266 5.32911 3.62486 4.53444 4.34126 3.8823Z" fill="url(#paint5_linear_301_66)"/>
</g>
<defs>
<linearGradient id="paint0_linear_301_66" x1="3.04715" y1="15.153" x2="0.752393" y2="8.56962" gradientUnits="userSpaceOnUse">
<stop offset="0.14" stop-color="#F2E913"/>
<stop offset="0.3" stop-color="#E7E518"/>
<stop offset="0.58" stop-color="#CADB26"/>
<stop offset="0.89" stop-color="#A3CD39"/>
</linearGradient>
<linearGradient id="paint1_linear_301_66" x1="3.22024" y1="3.00952" x2="9.05871" y2="0.805047" gradientUnits="userSpaceOnUse">
<stop offset="0.06" stop-color="#0FA8E0"/>
<stop offset="0.54" stop-color="#0099F9"/>
<stop offset="0.92" stop-color="#0291EB"/>
</linearGradient>
<linearGradient id="paint2_linear_301_66" x1="8.38154" y1="16.8007" x2="14.9799" y2="15.3185" gradientUnits="userSpaceOnUse">
<stop offset="0.12" stop-color="#A3CD39"/>
<stop offset="0.28" stop-color="#86C339"/>
<stop offset="0.87" stop-color="#21A038"/>
</linearGradient>
<linearGradient id="paint3_linear_301_66" x1="8.532" y1="0.699726" x2="14.1749" y2="2.4302" gradientUnits="userSpaceOnUse">
<stop offset="0.06" stop-color="#0291EB"/>
<stop offset="0.79" stop-color="#0C8ACB"/>
</linearGradient>
<linearGradient id="paint4_linear_301_66" x1="2.83653" y1="14.8294" x2="8.98348" y2="17.1091" gradientUnits="userSpaceOnUse">
<stop offset="0.13" stop-color="#F2E913"/>
<stop offset="0.3" stop-color="#EBE716"/>
<stop offset="0.53" stop-color="#D9E01F"/>
<stop offset="0.8" stop-color="#BBD62D"/>
<stop offset="0.98" stop-color="#A3CD39"/>
</linearGradient>
<linearGradient id="paint5_linear_301_66" x1="0.774977" y1="9.2844" x2="3.26536" y2="2.84402" gradientUnits="userSpaceOnUse">
<stop offset="0.07" stop-color="#A3CD39"/>
<stop offset="0.26" stop-color="#81C55F"/>
<stop offset="0.92" stop-color="#0FA8E0"/>
</linearGradient>
<clipPath id="clip0_301_66">
<rect width="158" height="18.0571" fill="white"/>
</clipPath>
</defs>
</svg>
