<svg width="175" height="40" viewBox="0 0 175 40" fill="none" xmlns="http://www.w3.org/2000/svg">
<path d="M165.289 18.3945C164.891 18.3945 164.579 18.1955 164.351 17.7976C164.124 17.3714 163.968 16.8598 163.883 16.263C163.797 15.6378 163.797 15.0268 163.883 14.4299C163.968 13.8331 164.124 13.3358 164.351 12.9379C164.579 12.5116 164.891 12.2985 165.289 12.2985C164.721 12.2985 164.295 12.1422 164.01 11.8296C163.726 11.4885 163.584 11.1049 163.584 10.6786C163.584 10.2523 163.726 9.88284 164.01 9.57023C164.295 9.2292 164.721 9.05868 165.289 9.05868C164.664 9.05868 164.238 8.83133 164.01 8.37662C163.811 7.92191 163.811 7.4672 164.01 7.01249C164.238 6.55778 164.664 6.33042 165.289 6.33042C164.977 6.24516 164.792 5.97518 164.735 5.52047C164.707 5.03734 164.778 4.52579 164.948 3.98582C165.119 3.41743 165.346 2.96272 165.63 2.62169C165.914 2.25224 166.227 2.11014 166.568 2.1954C166.568 1.62701 166.753 1.20072 167.122 0.916525C167.52 0.632331 167.975 0.490234 168.486 0.490234C168.998 0.490234 169.453 0.632331 169.851 0.916525C170.248 1.20072 170.447 1.62701 170.447 2.1954C170.419 1.4565 170.618 0.959155 171.044 0.703381C171.47 0.447606 171.897 0.447606 172.323 0.703381C172.749 0.930736 172.962 1.42808 172.962 2.1954C173.559 2.1954 174 2.46538 174.284 3.00535C174.568 3.5169 174.696 4.11371 174.668 4.79577C174.668 5.47784 174.511 6.08886 174.199 6.62882C173.915 7.14037 173.474 7.38194 172.877 7.35352C173.446 7.35352 173.858 7.55246 174.113 7.95033C174.398 8.31978 174.54 8.74607 174.54 9.2292C174.54 9.71233 174.398 10.1528 174.113 10.5507C173.858 10.9202 173.446 11.1049 172.877 11.1049C173.474 11.1049 173.915 11.3891 174.199 11.9575C174.511 12.5258 174.668 13.1795 174.668 13.9184C174.668 14.6573 174.511 15.3109 174.199 15.8793C173.915 16.4193 173.474 16.6893 172.877 16.6893C173.105 17.0303 173.133 17.3714 172.962 17.7124C172.82 18.0534 172.579 18.3376 172.238 18.565C171.897 18.7923 171.527 18.9202 171.129 18.9486C170.76 18.9486 170.476 18.7923 170.277 18.4797C170.277 18.9344 170.021 19.2755 169.51 19.5028C169.026 19.7017 168.458 19.8012 167.804 19.8012C167.151 19.8012 166.568 19.6875 166.057 19.4602C165.573 19.2044 165.318 18.8492 165.289 18.3945ZM165.289 28.796C164.721 28.796 164.295 28.6254 164.01 28.2844C163.726 27.915 163.584 27.5029 163.584 27.0482C163.584 26.565 163.726 26.1529 164.01 25.8119C164.295 25.4425 164.721 25.2577 165.289 25.2577C164.92 25.0304 164.721 24.7178 164.692 24.3199C164.692 23.8936 164.806 23.4957 165.033 23.1263C165.261 22.7284 165.559 22.4442 165.929 22.2737C166.298 22.0748 166.682 22.089 167.08 22.3163C167.08 21.9185 167.35 21.6201 167.89 21.4211C168.43 21.1938 169.055 21.0801 169.765 21.0801C170.476 21.0801 171.101 21.1938 171.641 21.4211C172.181 21.6201 172.451 21.9185 172.451 22.3163C173.36 21.8332 173.872 21.7195 173.986 21.9753C174.128 22.2027 173.758 22.5721 172.877 23.0837C173.446 23.0837 173.872 23.3536 174.156 23.8936C174.44 24.4052 174.582 25.002 174.582 25.684C174.582 26.3661 174.44 26.9771 174.156 27.5171C173.872 28.0286 173.446 28.2844 172.877 28.2844C173.076 28.7391 173.048 29.1512 172.792 29.5206C172.565 29.8901 172.224 30.1885 171.769 30.4159C171.314 30.6148 170.859 30.6858 170.405 30.629C169.95 30.5722 169.623 30.3306 169.424 29.9043C169.424 30.5011 169.211 30.9416 168.785 31.2258C168.387 31.51 167.918 31.6237 167.378 31.5668C166.838 31.51 166.355 31.2542 165.929 30.7995C165.531 30.3448 165.318 29.677 165.289 28.796Z" fill="#FF0066"/>
<path d="M146.699 26.0677C146.073 26.0677 145.604 25.9114 145.292 25.5988C145.008 25.2577 144.866 24.8741 144.866 24.4478C144.866 24.0215 145.008 23.652 145.292 23.3394C145.604 22.9984 146.073 22.8279 146.699 22.8279C146.159 22.8279 145.761 22.6574 145.505 22.3163C145.249 21.9753 145.121 21.5916 145.121 21.1654C145.121 20.7106 145.249 20.3128 145.505 19.9717C145.761 19.6307 146.159 19.4602 146.699 19.4602C145.903 19.4602 145.349 19.2897 145.036 18.9486C144.752 18.6076 144.723 18.295 144.951 18.0108C144.411 17.8687 143.942 17.5561 143.544 17.073C143.175 16.5614 143.104 16.0357 143.331 15.4957C143.132 15.7799 142.819 15.9362 142.393 15.9646C141.967 15.993 141.541 15.9362 141.114 15.7941C140.688 15.6236 140.347 15.3962 140.091 15.112C139.835 14.7994 139.764 14.4726 139.878 14.1316C139.395 14.1031 139.025 13.8758 138.77 13.4495C138.542 13.0232 138.429 12.5259 138.429 11.9575C138.457 11.3891 138.599 10.906 138.855 10.5081C139.111 10.0818 139.48 9.86864 139.963 9.86864C139.963 9.41393 140.162 9.04448 140.56 8.76029C140.986 8.47609 141.498 8.29137 142.095 8.20611C142.72 8.09243 143.331 8.09243 143.928 8.20611C144.553 8.29137 145.065 8.47609 145.462 8.76029C145.889 9.01606 146.102 9.38551 146.102 9.86864C146.102 9.41393 146.358 9.0729 146.869 8.84554C147.409 8.61819 148.02 8.50451 148.702 8.50451C149.413 8.50451 150.024 8.61819 150.535 8.84554C151.075 9.0729 151.345 9.41393 151.345 9.86864C151.345 9.35709 151.587 8.97343 152.07 8.71766C152.553 8.46188 153.107 8.334 153.732 8.334C154.358 8.334 154.912 8.46188 155.395 8.71766C155.878 8.97343 156.12 9.35709 156.12 9.86864C156.12 9.38551 156.361 9.01606 156.844 8.76029C157.356 8.50451 157.939 8.37662 158.592 8.37662C159.274 8.34821 159.871 8.46188 160.383 8.71766C160.894 8.94501 161.15 9.30026 161.15 9.78339C161.605 9.78339 161.931 9.96811 162.13 10.3376C162.358 10.707 162.471 11.1333 162.471 11.6164C162.471 12.0996 162.358 12.5259 162.13 12.8953C161.903 13.2648 161.576 13.4495 161.15 13.4495C161.434 13.8474 161.519 14.2452 161.406 14.6431C161.32 15.0126 161.107 15.311 160.766 15.5383C160.454 15.7657 160.098 15.8651 159.701 15.8367C159.331 15.8083 159.004 15.5952 158.72 15.1973C158.72 15.7657 158.436 16.1635 157.867 16.3909C157.327 16.6183 156.788 16.6609 156.248 16.5188C156.39 17.0303 156.39 17.5703 156.248 18.1387C156.134 18.6787 155.921 19.1334 155.608 19.5028C155.296 19.8723 154.912 20.0286 154.457 19.9717C154.912 20.0002 155.239 20.1849 155.438 20.5259C155.665 20.8385 155.764 21.208 155.736 21.6343C155.736 22.0606 155.608 22.43 155.352 22.7426C155.125 23.0268 154.784 23.1689 154.329 23.1689C154.841 23.1689 155.224 23.3963 155.48 23.851C155.764 24.2773 155.907 24.7746 155.907 25.343C155.907 25.883 155.764 26.3661 155.48 26.7924C155.224 27.2187 154.841 27.4318 154.329 27.4318C155.04 27.4318 155.509 27.6308 155.736 28.0286C155.963 28.4265 155.963 28.8244 155.736 29.2223C155.509 29.6201 155.04 29.8191 154.329 29.8191C154.329 30.4443 154.059 30.9132 153.519 31.2258C152.979 31.5669 152.34 31.7374 151.601 31.7374C150.862 31.7658 150.208 31.6237 149.64 31.3111C149.1 30.9985 148.83 30.5295 148.83 29.9043C148.83 30.5295 148.716 30.97 148.489 31.2258C148.29 31.4816 148.049 31.4958 147.764 31.2684C147.509 31.0411 147.267 30.5153 147.04 29.6912C146.841 28.867 146.727 27.6592 146.699 26.0677Z" fill="#FF0066"/>
<path d="M123.421 30.2027C123.251 30.7995 122.938 31.1832 122.483 31.3537C122.029 31.5526 121.545 31.5811 121.034 31.439C120.551 31.3253 120.153 31.0695 119.84 30.6716C119.528 30.2738 119.457 29.7764 119.627 29.1796C119.315 29.6059 118.945 29.8475 118.519 29.9043C118.093 29.9327 117.695 29.8191 117.325 29.5633C116.984 29.3075 116.757 28.9807 116.643 28.5828C116.558 28.1565 116.686 27.716 117.027 27.2613C116.601 27.4602 116.174 27.375 115.748 27.0055C115.322 26.6077 114.966 26.0961 114.682 25.4709C114.398 24.8172 114.256 24.2062 114.256 23.6378C114.256 23.0694 114.469 22.6858 114.895 22.4869C114.384 22.4869 114 22.2453 113.744 21.7622C113.489 21.279 113.361 20.7106 113.361 20.057C113.361 19.4033 113.489 18.835 113.744 18.3518C114 17.8687 114.37 17.6271 114.853 17.6271C114.085 17.3998 113.631 17.0587 113.489 16.604C113.347 16.1493 113.446 15.7657 113.787 15.4531C114.156 15.1404 114.725 15.0978 115.492 15.3252C115.236 15.0978 115.151 14.771 115.236 14.3447C115.35 13.89 115.577 13.4211 115.918 12.9379C116.259 12.4548 116.643 12.0285 117.069 11.6591C117.496 11.2612 117.908 10.977 118.306 10.8065C118.732 10.636 119.073 10.6644 119.329 10.8917C119.187 10.4086 119.315 9.98232 119.712 9.61286C120.139 9.24341 120.664 8.97343 121.29 8.80291C121.915 8.60398 122.498 8.56135 123.038 8.67503C123.577 8.76028 123.919 9.04448 124.061 9.52761C124.089 8.98764 124.402 8.61818 124.998 8.41925C125.624 8.19189 126.306 8.10664 127.045 8.16347C127.812 8.22031 128.48 8.40504 129.048 8.71765C129.617 9.03027 129.872 9.45656 129.816 9.99653C130.043 9.45656 130.356 9.17236 130.753 9.14394C131.18 9.08711 131.521 9.21499 131.776 9.52761C132.061 9.84022 132.103 10.2665 131.904 10.8065C132.217 10.4939 132.629 10.4512 133.141 10.6786C133.681 10.8775 134.192 11.2186 134.675 11.7017C135.187 12.1848 135.542 12.6964 135.741 13.2363C135.968 13.7763 135.926 14.2026 135.613 14.5152C136.039 14.43 136.423 14.572 136.764 14.9415C137.134 15.311 137.418 15.7941 137.617 16.3909C137.844 16.9877 137.972 17.6129 138 18.2666C138.029 18.8918 137.958 19.446 137.787 19.9291C137.617 20.4122 137.304 20.6964 136.849 20.7817C137.674 21.1511 138.043 21.4353 137.958 21.6343C137.872 21.8048 137.418 21.7053 136.594 21.3359C136.594 21.7053 136.352 21.9895 135.869 22.1884C135.414 22.359 134.888 22.4442 134.292 22.4442C133.695 22.4442 133.155 22.359 132.672 22.1884C132.217 21.9895 131.99 21.7053 131.99 21.3359C131.99 21.819 131.776 22.1884 131.35 22.4442C130.924 22.6716 130.427 22.7995 129.858 22.8279C129.318 22.8279 128.835 22.7142 128.409 22.4869C127.982 22.2311 127.769 21.8758 127.769 21.4211C127.798 21.9043 127.556 22.3021 127.045 22.6147C126.562 22.8989 126.007 23.0694 125.382 23.1263C125.666 23.4673 125.894 23.8368 126.064 24.2346C126.263 24.6041 126.391 24.9451 126.448 25.2577C126.732 24.9451 127.158 24.6751 127.727 24.4478C128.295 24.2204 128.878 24.0783 129.475 24.0215C130.071 23.9647 130.597 24.0073 131.052 24.1494C131.535 24.2631 131.819 24.5188 131.904 24.9167C131.904 24.4336 132.089 24.0641 132.459 23.8084C132.856 23.5526 133.311 23.4247 133.823 23.4247C134.334 23.4247 134.775 23.5526 135.144 23.8084C135.542 24.0641 135.741 24.4336 135.741 24.9167C136.309 25.0304 136.65 25.272 136.764 25.6414C136.878 25.9824 136.807 26.295 136.551 26.5792C136.295 26.835 135.897 26.9061 135.357 26.7924C135.613 27.1618 135.656 27.5455 135.485 27.9434C135.315 28.3128 135.031 28.6397 134.633 28.9238C134.263 29.1796 133.865 29.3217 133.439 29.3501C133.041 29.3786 132.714 29.2222 132.459 28.8812C132.629 29.4212 132.544 29.8901 132.203 30.288C131.89 30.6858 131.464 30.97 130.924 31.1406C130.384 31.3111 129.858 31.3111 129.347 31.1406C128.863 30.9985 128.537 30.6574 128.366 30.1175C128.423 30.8848 128.21 31.4105 127.727 31.6947C127.272 31.9789 126.647 31.9931 125.851 31.7374C125.084 31.51 124.274 30.9985 123.421 30.2027ZM125.169 18.1387C125.169 17.5703 125.325 17.2577 125.638 17.2008C125.951 17.1156 126.164 17.2861 126.277 17.7124C126.363 17.4566 126.533 17.2151 126.789 16.9877C127.045 16.7603 127.315 16.604 127.599 16.5188C127.258 16.263 126.974 15.8936 126.746 15.4104C126.519 14.9273 126.448 14.501 126.533 14.1315C126.277 14.2736 125.965 14.3589 125.595 14.3873C125.254 14.4157 124.956 14.3731 124.7 14.2594C124.785 14.572 124.771 14.9415 124.657 15.3678C124.544 15.7941 124.359 16.1777 124.103 16.5188C123.876 16.8598 123.606 17.0445 123.293 17.073C123.663 17.1582 123.933 17.3571 124.103 17.6698C124.302 17.9824 124.657 18.1387 125.169 18.1387Z" fill="#FF0066"/>
<path d="M88.7828 28.2844C88.2428 28.2844 87.8307 28.057 87.5465 27.6023C87.2907 27.1476 87.1628 26.6219 87.1628 26.0251C87.1628 25.3998 87.2907 24.8599 87.5465 24.4051C87.8307 23.9504 88.2428 23.7231 88.7828 23.7231C88.2428 23.7231 87.8307 23.5668 87.5465 23.2542C87.2907 22.9415 87.1628 22.5863 87.1628 22.1884C87.1628 21.7906 87.2907 21.4353 87.5465 21.1227C87.8307 20.8101 88.2428 20.6538 88.7828 20.6538C88.186 20.6538 87.7312 20.4406 87.4186 20.0143C87.106 19.5596 86.9497 19.0481 86.9497 18.4797C86.9497 17.8829 87.106 17.3571 87.4186 16.9024C87.7312 16.4477 88.186 16.2204 88.7828 16.2204C88.0723 16.2204 87.5891 16.0783 87.3334 15.7941C87.106 15.5099 87.106 15.2399 87.3334 14.9841C87.5891 14.6999 88.0723 14.5578 88.7828 14.5578C88.2712 14.5578 87.8733 14.3873 87.5891 14.0463C87.3334 13.6768 87.2055 13.279 87.2055 12.8527C87.2055 12.398 87.3334 12.0001 87.5891 11.659C87.8733 11.318 88.2712 11.1475 88.7828 11.1475C88.6407 10.7496 88.7259 10.3944 89.0385 10.0818C89.3796 9.74074 89.7916 9.48496 90.2748 9.31445C90.7863 9.14393 91.2552 9.1013 91.6815 9.18656C92.1362 9.2434 92.4346 9.47076 92.5767 9.86863C92.5767 9.32866 92.7188 8.93079 93.003 8.67501C93.2872 8.39082 93.6141 8.24872 93.9835 8.24872C94.3814 8.24872 94.7224 8.39082 95.0066 8.67501C95.2908 8.93079 95.4329 9.32866 95.4329 9.86863C95.4329 9.35708 95.7171 8.98762 96.2855 8.76027C96.8539 8.50449 97.5075 8.37661 98.2464 8.37661C98.9853 8.37661 99.6248 8.50449 100.165 8.76027C100.733 9.01604 101.017 9.3855 101.017 9.86863C101.046 9.30024 101.23 8.93079 101.571 8.76027C101.913 8.58975 102.225 8.61817 102.509 8.84553C102.822 9.04446 102.95 9.44234 102.893 10.0391C103.035 9.55601 103.362 9.25761 103.873 9.14393C104.385 9.00183 104.939 9.01604 105.536 9.18656C106.133 9.32866 106.616 9.58443 106.985 9.95388C107.383 10.3233 107.511 10.7496 107.369 11.2328C107.795 11.0338 108.236 11.1191 108.691 11.4885C109.145 11.858 109.529 12.3553 109.842 12.9805C110.154 13.6058 110.339 14.2168 110.396 14.8136C110.453 15.4104 110.268 15.8083 109.842 16.0072C110.609 16.3767 110.964 16.8598 110.907 17.4566C110.85 18.025 110.566 18.4087 110.055 18.6076C110.509 18.8918 110.708 19.3465 110.651 19.9717C110.623 20.5969 110.225 21.0232 109.458 21.2506C109.827 21.1085 110.168 21.1938 110.481 21.5064C110.794 21.7906 111.021 22.1742 111.163 22.6574C111.334 23.1121 111.39 23.5526 111.334 23.9789C111.277 24.4051 111.064 24.6751 110.694 24.7888C110.978 25.0446 111.064 25.3856 110.95 25.8119C110.836 26.2382 110.609 26.6929 110.268 27.176C109.955 27.6592 109.572 28.0997 109.117 28.4975C108.691 28.867 108.264 29.1228 107.838 29.2649C107.412 29.407 107.056 29.3501 106.772 29.0943C106.857 29.5775 106.673 29.9896 106.218 30.3306C105.792 30.6432 105.266 30.8563 104.641 30.97C104.016 31.0553 103.447 31.0127 102.936 30.8421C102.424 30.6716 102.126 30.3448 102.04 29.8617C102.04 30.4869 101.884 30.9558 101.571 31.2684C101.287 31.581 100.946 31.7373 100.548 31.7373C100.151 31.7373 99.7953 31.581 99.4827 31.2684C99.17 30.9842 98.9995 30.5295 98.9711 29.9043C98.9711 30.2738 98.7722 30.5722 98.3743 30.7995C97.9764 31.0269 97.4649 31.169 96.8397 31.2258C96.2428 31.3111 95.646 31.3111 95.0492 31.2258C94.4524 31.169 93.9409 31.0269 93.5146 30.7995C93.1167 30.5722 92.9178 30.2738 92.9178 29.9043C92.9178 30.6148 92.7615 31.0837 92.4489 31.3111C92.1362 31.5668 91.8236 31.5668 91.511 31.3111C91.1984 31.0837 91.0421 30.6148 91.0421 29.9043C91.0421 30.7 90.8574 31.2116 90.4879 31.4389C90.1469 31.6663 89.7774 31.5242 89.3796 31.0127C89.0101 30.5295 88.8112 29.6201 88.7828 28.2844ZM97.5644 17.8829C97.5644 17.485 97.7491 17.215 98.1185 17.0729C98.5164 16.9024 98.9427 16.8598 99.3974 16.9451C99.8521 17.0019 100.165 17.1724 100.335 17.4566C100.392 17.0872 100.605 16.7461 100.975 16.4335C101.344 16.0925 101.714 15.8935 102.083 15.8367C101.77 15.4957 101.671 15.0978 101.785 14.6431C101.444 14.8136 100.989 14.8846 100.421 14.8562C99.8805 14.8278 99.3548 14.7426 98.8432 14.6005C98.3317 14.4299 97.9906 14.2026 97.8201 13.9184C97.8485 14.231 97.7491 14.4726 97.5217 14.6431C97.2944 14.8136 97.0528 14.8704 96.797 14.8136C96.9675 15.1262 97.0812 15.5383 97.1381 16.0498C97.2233 16.533 97.2944 16.9593 97.3512 17.3287C97.408 17.6982 97.4791 17.8829 97.5644 17.8829ZM97.5644 26.1956C97.5644 25.8261 97.7349 25.5846 98.0759 25.4709C98.4453 25.3572 98.8148 25.3572 99.1843 25.4709C99.5537 25.5846 99.7384 25.8119 99.7384 26.1529C99.6532 25.7551 99.8663 25.4282 100.378 25.1725C100.889 24.9167 101.373 24.8172 101.827 24.8741C101.6 24.4478 101.6 24.0073 101.827 23.5526C101.458 23.581 101.074 23.4531 100.676 23.1689C100.278 22.8847 100.108 22.5721 100.165 22.2311C100.023 22.5437 99.7242 22.7426 99.2695 22.8279C98.8148 22.8847 98.3885 22.8421 97.9906 22.7C97.5928 22.5579 97.3938 22.2879 97.3938 21.89C97.3938 22.3163 97.2802 22.6147 97.0528 22.7852C97.2233 23.2115 97.337 23.6947 97.3938 24.2346C97.4791 24.7462 97.5217 25.2009 97.5217 25.5988C97.5501 25.9966 97.5644 26.1956 97.5644 26.1956Z" fill="#FF0066"/>
<path d="M84.2178 10.4654C84.9283 10.4654 85.3972 10.636 85.6245 10.977C85.8803 11.318 85.8803 11.6591 85.6245 12.0001C85.3972 12.3411 84.9283 12.5116 84.2178 12.5116C84.6725 12.5116 85.0135 12.7816 85.2409 13.3216C85.4682 13.8616 85.5819 14.501 85.5819 15.2399C85.5819 15.9504 85.4682 16.5756 85.2409 17.1156C85.0135 17.6555 84.6725 17.9255 84.2178 17.9255C84.7577 17.9255 85.1556 18.1671 85.4114 18.6502C85.6956 19.1334 85.8377 19.6875 85.8377 20.3128C85.8377 20.938 85.6956 21.4922 85.4114 21.9753C85.1556 22.4584 84.7577 22.7 84.2178 22.7C84.7577 22.7 85.1556 22.9273 85.4114 23.3821C85.6956 23.8368 85.8377 24.3767 85.8377 25.002C85.8377 25.5988 85.6956 26.1245 85.4114 26.5792C85.1556 27.0339 84.7577 27.2613 84.2178 27.2613C84.8998 27.2613 85.3403 27.4602 85.5393 27.8581C85.7666 28.256 85.7666 28.6539 85.5393 29.0517C85.3403 29.4496 84.8998 29.6485 84.2178 29.6485C84.2462 30.1601 84.0615 30.558 83.6636 30.8421C83.2657 31.1263 82.7826 31.2826 82.2142 31.3111C81.6742 31.3395 81.1911 31.24 80.7648 31.0127C80.3385 30.7853 80.1112 30.4159 80.0828 29.9043C79.9975 30.5295 79.7559 30.97 79.3581 31.2258C78.9602 31.4816 78.5197 31.581 78.0366 31.5242C77.5534 31.4674 77.1413 31.2684 76.8003 30.9274C76.4593 30.5864 76.3314 30.1032 76.4167 29.478C76.0188 29.478 75.7062 29.2649 75.4788 28.8386C75.2515 28.4123 75.1236 27.9007 75.0951 27.3039C75.0951 26.7071 75.1804 26.1672 75.3509 25.684C75.5214 25.2009 75.7914 24.9025 76.1609 24.7888C75.763 24.7888 75.4078 24.6041 75.0951 24.2346C74.7825 23.8652 74.5694 23.4389 74.4557 22.9558C74.001 23.0126 73.66 22.8989 73.4326 22.6147C73.6031 22.8705 73.6173 23.2115 73.4752 23.6378C73.3616 24.0357 73.1626 24.4478 72.8784 24.8741C72.5942 25.2719 72.2816 25.5846 71.9406 25.8119C71.5996 26.0108 71.3012 26.0251 71.0454 25.8545C71.3864 26.1387 71.4717 26.5508 71.3012 27.0908C71.1306 27.6308 70.818 28.1707 70.3633 28.7107C69.937 29.2507 69.4681 29.6627 68.9566 29.9469C68.445 30.2027 68.0187 30.1885 67.6777 29.9043C67.6777 30.5295 67.493 30.9416 67.1235 31.1405C66.7541 31.3679 66.3846 31.3679 66.0151 31.1405C65.6457 30.9416 65.461 30.5295 65.461 29.9043C65.461 30.6148 65.2905 31.0837 64.9494 31.3111C64.6368 31.5384 64.31 31.5384 63.969 31.3111C63.6279 31.0837 63.4574 30.6148 63.4574 29.9043C63.4858 30.558 63.3011 30.9985 62.9032 31.2258C62.5054 31.4532 62.1075 31.4674 61.7096 31.2684C61.3117 31.0695 61.0986 30.6432 61.0702 29.9896C60.587 29.9611 60.2318 29.7196 60.0044 29.2649C59.7771 28.8102 59.6776 28.2986 59.706 27.7302C59.7629 27.1334 59.9192 26.6219 60.175 26.1956C60.4592 25.7409 60.8428 25.5277 61.326 25.5561C60.8997 25.5561 60.5728 25.3856 60.3455 25.0446C60.1465 24.6751 60.0471 24.2631 60.0471 23.8083C60.0471 23.3252 60.1465 22.9131 60.3455 22.5721C60.5728 22.2027 60.8997 22.0179 61.326 22.0179C60.7576 22.0179 60.3739 21.8048 60.175 21.3785C59.976 20.9522 59.976 20.5259 60.175 20.0996C60.3739 19.6733 60.7576 19.4602 61.326 19.4602C60.7576 19.4602 60.3313 19.2044 60.0471 18.6929C59.7629 18.1529 59.6208 17.5419 59.6208 16.8598C59.6208 16.1493 59.7629 15.5383 60.0471 15.0268C60.3313 14.4868 60.7576 14.2168 61.326 14.2168C60.8712 14.1031 60.5728 13.8047 60.4307 13.3216C60.3171 12.8385 60.3171 12.3127 60.4307 11.7443C60.5728 11.1759 60.8002 10.707 61.1128 10.3376C61.4254 9.93968 61.8091 9.78337 62.2638 9.86863C62.2638 9.47076 62.4627 9.15815 62.8606 8.93079C63.2585 8.70344 63.7558 8.54713 64.3526 8.46187C64.9494 8.37661 65.532 8.37661 66.1004 8.46187C66.6972 8.54713 67.1946 8.70344 67.5924 8.93079C67.9903 9.15815 68.1892 9.47076 68.1892 9.86863C68.6439 9.72654 69.0276 9.75496 69.3402 9.95389C69.6813 10.1528 69.9086 10.437 70.0223 10.8065C70.1644 11.1759 70.1644 11.5454 70.0223 11.9148C69.8802 12.2559 69.5818 12.5116 69.1271 12.6822C69.6102 12.6822 69.9655 12.8527 70.1928 13.1937C70.4202 13.5347 70.5196 13.9326 70.4912 14.3873C70.4628 14.8136 70.2923 15.1546 69.9797 15.4104C70.4912 15.4388 70.9601 15.6946 71.3864 16.1777C71.6138 15.6378 71.9122 15.1404 72.2816 14.6857C72.6795 14.2026 73.0916 13.8616 73.5179 13.6626C73.9442 13.4353 74.342 13.4353 74.7115 13.6626C74.3136 13.4068 74.1005 13.0942 74.072 12.7248C74.0436 12.3269 74.1431 11.9575 74.3705 11.6164C74.5978 11.2754 74.882 11.048 75.223 10.9344C75.5925 10.7923 75.9761 10.8349 76.374 11.0622C75.8625 10.4654 75.6493 9.9681 75.7346 9.57023C75.8198 9.14394 76.0614 8.93079 76.4593 8.93079C76.8856 8.93079 77.3545 9.24341 77.866 9.86863C77.866 9.3855 78.0792 9.00184 78.5055 8.71765C78.9318 8.43345 79.4575 8.24873 80.0828 8.16347C80.708 8.07821 81.3332 8.10663 81.9584 8.24872C82.5837 8.39082 83.1094 8.6466 83.5357 9.01605C83.962 9.3855 84.1894 9.86863 84.2178 10.4654Z" fill="#FF0066"/>
<path d="M33.9524 33.4851C33.4409 33.4851 33.0572 33.201 32.8014 32.6326C32.5741 32.0642 32.4604 31.4105 32.4604 30.6716C32.4604 29.9327 32.5741 29.2791 32.8014 28.7107C33.0572 28.1423 33.4409 27.8581 33.9524 27.8581C33.4124 27.8581 33.0004 27.645 32.7162 27.2187C32.4604 26.7924 32.3325 26.295 32.3325 25.7267C32.3325 25.1583 32.4604 24.6609 32.7162 24.2346C33.0004 23.8083 33.4124 23.5952 33.9524 23.5952C33.3556 23.5952 32.9009 23.4531 32.5883 23.1689C32.3041 22.8563 32.162 22.5153 32.162 22.1458C32.162 21.7764 32.3041 21.4495 32.5883 21.1653C32.9009 20.8527 33.3556 20.6964 33.9524 20.6964C33.3272 20.6964 32.9009 20.5543 32.6735 20.2701C32.4746 19.9859 32.4746 19.7017 32.6735 19.4175C32.9009 19.1334 33.3272 18.9913 33.9524 18.9913C33.4977 18.9913 33.1425 18.7923 32.8867 18.3944C32.6593 17.9682 32.5457 17.485 32.5457 16.9451C32.5457 16.4051 32.6593 15.9362 32.8867 15.5383C33.1425 15.112 33.4977 14.8989 33.9524 14.8989C33.3556 14.8989 32.9009 14.6857 32.5883 14.2594C32.3041 13.8331 32.162 13.3358 32.162 12.7674C32.162 12.199 32.3041 11.7017 32.5883 11.2754C32.9009 10.8491 33.3556 10.636 33.9524 10.636C33.6114 10.1528 33.4693 9.76916 33.5261 9.48497C33.6114 9.20077 33.7961 9.07289 34.0803 9.10131C34.3929 9.12973 34.7197 9.3855 35.0608 9.86863C35.0608 9.2434 35.2313 8.83132 35.5723 8.63238C35.9418 8.43345 36.3112 8.43345 36.6807 8.63238C37.0501 8.83132 37.2348 9.2434 37.2348 9.86863C37.2917 9.44234 37.5333 9.14393 37.9595 8.97342C38.3858 8.8029 38.869 8.74606 39.4089 8.8029C39.9773 8.85974 40.4462 9.01605 40.8157 9.27182C41.2136 9.5276 41.3983 9.85442 41.3699 10.2523C41.512 9.74074 41.782 9.41392 42.1798 9.27182C42.6061 9.12973 43.0182 9.15815 43.4161 9.35708C43.8139 9.5276 44.0555 9.81179 44.1408 10.2097C44.3397 9.78337 44.7092 9.44234 45.2491 9.18656C45.8175 8.90237 46.3859 8.76027 46.9543 8.76027C47.5227 8.76027 47.8921 9.00184 48.0626 9.48497C48.1195 8.85974 48.3326 8.40503 48.7021 8.12084C49.0999 7.83664 49.5262 7.72297 49.9809 7.7798C50.4641 7.80822 50.8619 8.00716 51.1746 8.37661C51.4872 8.71764 51.6151 9.20077 51.5582 9.826C51.814 9.54181 52.2119 9.51339 52.7518 9.74074C53.2918 9.9681 53.8318 10.3233 54.3717 10.8065C54.9117 11.2612 55.3238 11.7443 55.608 12.2559C55.8922 12.7674 55.9206 13.1653 55.6932 13.4495C56.2048 13.3358 56.6311 13.4921 56.9721 13.9184C57.3416 14.3447 57.5973 14.8847 57.7394 15.5383C57.8815 16.1635 57.8673 16.7461 57.6968 17.2861C57.5547 17.8261 57.2279 18.1529 56.7163 18.2666C57.1426 18.2666 57.4552 18.4655 57.6542 18.8634C57.8815 19.2612 57.981 19.7302 57.9526 20.2701C57.9526 20.7817 57.8389 21.2364 57.6116 21.6343C57.4126 22.0037 57.1 22.1884 56.6737 22.1884C57.2421 22.359 57.5973 22.7 57.7394 23.2115C57.91 23.7231 57.91 24.2773 57.7394 24.8741C57.5973 25.4709 57.3274 25.954 56.9295 26.3235C56.5316 26.6929 56.0485 26.7924 55.4801 26.6219C55.9348 27.0197 56.1764 27.446 56.2048 27.9007C56.2332 28.327 56.1053 28.6965 55.8211 29.0091C55.5654 29.2933 55.2101 29.4638 54.7554 29.5206C54.3291 29.5491 53.8886 29.3643 53.4339 28.9665C53.5476 29.3928 53.3486 29.7906 52.8371 30.1601C52.3255 30.5011 51.7003 30.7569 50.9614 30.9274C50.2225 31.0979 49.5404 31.1405 48.9152 31.0553C48.29 30.97 47.9205 30.7143 47.8069 30.288C47.6079 30.7143 47.2669 30.9416 46.7838 30.97C46.3291 31.0269 45.8601 30.9416 45.377 30.7143C44.9223 30.4869 44.5671 30.1885 44.3113 29.819C44.1692 30.0748 43.9702 30.2738 43.7145 30.4159C43.4587 30.558 43.1745 30.6148 42.8619 30.5864C43.1461 31.0411 43.3024 31.6379 43.3308 32.3768C43.3592 33.1157 43.2598 33.7693 43.0324 34.3377C42.8335 34.9345 42.4924 35.2329 42.0093 35.2329C42.6345 35.1761 43.1177 35.2898 43.4587 35.574C43.7997 35.8582 43.9845 36.1992 44.0129 36.5971C44.0413 36.9949 43.9134 37.3502 43.6292 37.6628C43.345 38.0038 42.8903 38.2028 42.2651 38.2596C42.2082 38.8848 41.9525 39.2827 41.4978 39.4532C41.0715 39.6237 40.6594 39.5811 40.2615 39.3253C39.8636 39.098 39.6931 38.6717 39.75 38.0465C39.7215 38.5296 39.5084 38.8848 39.1105 39.1122C38.7411 39.368 38.2722 39.4674 37.7038 39.4106C37.1354 39.3822 36.567 39.1548 35.9986 38.7285C35.4302 38.3022 34.9471 37.6628 34.5492 36.8102C34.1798 35.9576 33.9808 34.8493 33.9524 33.4851ZM48.0626 22.9131C47.8069 22.8847 47.6221 22.6858 47.5085 22.3163C47.3948 21.9185 47.3379 21.4637 47.3379 20.9522C47.3664 20.4406 47.4374 19.9717 47.5511 19.5454C47.6932 19.0907 47.8779 18.7781 48.1053 18.6076C47.8495 18.6076 47.5511 18.4655 47.2101 18.1813C46.869 17.8687 46.5564 17.4992 46.2722 17.0729C45.988 16.6467 45.8033 16.2488 45.718 15.8793C45.5191 16.1919 45.2491 16.3625 44.9081 16.3909C44.5671 16.3909 44.2829 16.2488 44.0555 15.9646C43.9987 16.3056 43.8139 16.6324 43.5013 16.9451C43.2171 17.2293 42.9187 17.3571 42.6061 17.3287C42.8619 17.5277 42.9329 17.7692 42.8193 18.0534C42.7056 18.3376 42.4356 18.4513 42.0093 18.3944C42.3219 18.3944 42.5635 18.5792 42.734 18.9486C42.9045 19.2897 43.004 19.716 43.0324 20.2275C43.0892 20.7106 43.0466 21.1653 42.9045 21.5916C42.7908 22.0179 42.6061 22.2879 42.3503 22.4016C42.6345 22.3447 42.8477 22.4442 42.9898 22.7C43.1603 22.9558 43.2029 23.1973 43.1177 23.4247C43.4019 23.2826 43.7997 23.2257 44.3113 23.2542C44.8512 23.2542 45.4481 23.2542 46.1017 23.2542C46.7553 23.2542 47.409 23.1405 48.0626 22.9131Z" fill="#FF0066"/>
<path d="M2.47249 29.6485C1.87568 29.6485 1.39255 29.4354 1.0231 29.0091C0.653646 28.5544 0.412081 28.0002 0.298404 27.3466C0.184726 26.6645 0.184726 25.9966 0.298404 25.343C0.412081 24.6893 0.653646 24.1352 1.0231 23.6805C1.39255 23.2258 1.87568 22.9984 2.47249 22.9984C1.70516 22.9984 1.13678 22.771 0.767324 22.3163C0.397872 21.8616 0.213146 21.3359 0.213146 20.7391C0.213146 20.1138 0.397872 19.5739 0.767324 19.1191C1.13678 18.6644 1.70516 18.4371 2.47249 18.4371C1.70516 18.4371 1.12257 18.1529 0.724695 17.5845C0.355242 16.9877 0.170516 16.3056 0.170516 15.5383C0.170516 14.771 0.355242 14.1031 0.724695 13.5347C1.12257 12.9379 1.70516 12.6395 2.47249 12.6395C1.67674 12.6395 1.06573 12.4264 0.639437 12.0001C0.241565 11.5454 0.0426291 11.0338 0.0426291 10.4654C0.0426291 9.86863 0.241565 9.35709 0.639437 8.93079C1.06573 8.47608 1.67674 8.24873 2.47249 8.24873C1.81884 8.24873 1.29308 8.04979 0.895211 7.65192C0.497339 7.22563 0.227355 6.72829 0.0852582 6.1599C-0.0284194 5.5631 -0.0284194 4.96629 0.0852582 4.36948C0.227355 3.77268 0.497339 3.27534 0.895211 2.87746C1.29308 2.47959 1.81884 2.28066 2.47249 2.28066C2.50091 1.57017 2.65721 1.04441 2.94141 0.70338C3.25402 0.362347 3.59505 0.20604 3.96451 0.23446C4.33396 0.262879 4.64657 0.461815 4.90235 0.831268C5.15812 1.1723 5.2718 1.69806 5.24338 2.40854C5.24338 1.86858 5.44231 1.44229 5.84019 1.12967C6.26648 0.817058 6.76382 0.618122 7.3322 0.532863C7.92901 0.419185 8.52582 0.419185 9.12263 0.532863C9.71943 0.618122 10.2168 0.817058 10.6146 1.12967C11.0125 1.44229 11.2115 1.86858 11.2115 2.40854C11.2115 1.7549 11.382 1.25756 11.723 0.916524C12.0925 0.575493 12.5187 0.404977 13.0019 0.404977C13.485 0.404977 13.8971 0.575493 14.2381 0.916524C14.6076 1.25756 14.7923 1.7549 14.7923 2.40854C14.7923 1.81174 14.9912 1.34282 15.3891 1.00178C15.787 0.632332 16.2843 0.390767 16.8811 0.27709C17.4779 0.163412 18.0747 0.163412 18.6715 0.27709C19.2684 0.390767 19.7657 0.632332 20.1636 1.00178C20.5614 1.34282 20.7604 1.81174 20.7604 2.40854C20.7604 1.7549 20.9735 1.24335 21.3998 0.873897C21.8545 0.476026 22.3945 0.22025 23.0197 0.106573C23.6734 -0.0355242 24.3128 -0.0355242 24.938 0.106573C25.5917 0.22025 26.1316 0.476026 26.5579 0.873897C27.0126 1.24335 27.24 1.7549 27.24 2.40854C27.8084 2.26645 28.2773 2.3517 28.6467 2.66432C29.0446 2.94851 29.3004 3.33217 29.4141 3.8153C29.5278 4.27001 29.4851 4.72472 29.2862 5.17944C29.0872 5.60573 28.7036 5.88992 28.1352 6.03202C28.6467 6.03202 29.0588 6.24516 29.3714 6.67145C29.6841 7.09774 29.883 7.6235 29.9683 8.24873C30.0819 8.84554 30.0819 9.45655 29.9683 10.0818C29.883 10.707 29.6841 11.2328 29.3714 11.6591C29.0588 12.0853 28.6467 12.2985 28.1352 12.2985C28.8173 12.2985 29.3288 12.5258 29.6698 12.9806C30.0109 13.4353 30.1814 13.961 30.1814 14.5578C30.1814 15.1262 30.0109 15.6378 29.6698 16.0925C29.3288 16.5188 28.8173 16.7319 28.1352 16.7319C28.7604 16.7319 29.2578 16.9309 29.6272 17.3287C29.9967 17.7266 30.2382 18.2239 30.3519 18.8207C30.4656 19.4176 30.4656 20.0144 30.3519 20.6112C30.2382 21.1796 29.9967 21.6769 29.6272 22.1032C29.2578 22.5011 28.7604 22.7 28.1352 22.7C28.9594 22.7 29.5704 22.9842 29.9683 23.5526C30.3945 24.0925 30.6077 24.732 30.6077 25.4709C30.6077 26.2098 30.3945 26.8634 29.9683 27.4318C29.5704 28.0002 28.9594 28.2844 28.1352 28.2844C28.3341 28.9096 28.2489 29.4496 27.8794 29.9043C27.5384 30.359 27.0695 30.6858 26.4727 30.8848C25.9043 31.0553 25.3359 31.0553 24.7675 30.8848C24.2275 30.7143 23.8581 30.3164 23.6591 29.6912C23.6591 30.4869 23.4886 31.0695 23.1476 31.439C22.8066 31.8368 22.4087 32.0358 21.954 32.0358C21.4993 32.0358 21.1014 31.8368 20.7604 31.439C20.4193 31.0695 20.2488 30.4869 20.2488 29.6912C19.5099 29.7196 18.9415 29.478 18.5437 28.9665C18.1742 28.4265 17.9753 27.8155 17.9468 27.1334C17.9184 26.4229 18.0747 25.7977 18.4158 25.2577C18.7568 24.6893 19.2968 24.3909 20.0357 24.3625C19.3252 24.3625 18.7852 24.0925 18.4158 23.5526C18.0463 23.0126 17.8616 22.3874 17.8616 21.6769C17.8616 20.938 18.0463 20.2986 18.4158 19.7586C18.7852 19.2186 19.3252 18.9486 20.0357 18.9486C18.9842 18.9486 18.2737 18.7355 17.9042 18.3092C17.5632 17.8829 17.5632 17.4566 17.9042 17.0303C18.2737 16.604 18.9842 16.3909 20.0357 16.3909C19.2115 16.3909 18.6289 16.2346 18.2879 15.922C17.9468 15.5809 17.8474 15.2257 17.9895 14.8562C18.16 14.4584 18.5721 14.2026 19.2257 14.0889C18.6289 14.0037 18.1458 13.691 17.7763 13.1511C17.4069 12.5827 17.2079 11.9859 17.1795 11.3607C16.9522 11.2754 16.7532 11.0622 16.5827 10.7212C16.4122 10.3518 16.3269 9.85442 16.3269 9.2292C16.3269 9.82601 16.128 10.3091 15.7301 10.6786C15.3323 11.0196 14.8349 11.2328 14.2381 11.318C13.6697 11.4033 13.1156 11.3749 12.5756 11.2328C12.1493 11.6306 11.5951 11.7727 10.913 11.6591C11.4814 11.7727 11.8935 12.1422 12.1493 12.7674C12.4335 13.3926 12.5614 14.0889 12.533 14.8562C12.5045 15.6236 12.3198 16.3056 11.9788 16.9024C11.6662 17.4708 11.1972 17.755 10.572 17.755C11.3109 17.755 11.8509 17.9682 12.1919 18.3945C12.5614 18.8207 12.7461 19.3181 12.7461 19.8865C12.7461 20.4264 12.5614 20.9096 12.1919 21.3359C11.8509 21.7622 11.3109 21.9753 10.572 21.9753C11.2541 21.9753 11.7656 22.2027 12.1067 22.6574C12.4761 23.1121 12.6608 23.6378 12.6608 24.2346C12.6608 24.803 12.4761 25.3146 12.1067 25.7693C11.7656 26.1956 11.2541 26.4087 10.572 26.4087C11.2825 26.5792 11.7798 26.8634 12.064 27.2613C12.3482 27.6592 12.4335 28.0855 12.3198 28.5402C12.2345 28.9665 11.9788 29.3075 11.5525 29.5633C11.1262 29.819 10.5578 29.8617 9.84732 29.6912C9.84732 30.4869 9.66259 31.0695 9.29314 31.439C8.95211 31.8368 8.54003 32.0358 8.0569 32.0358C7.57377 32.0358 7.14748 31.8368 6.77803 31.439C6.43699 31.0695 6.26648 30.4869 6.26648 29.6912C6.26648 30.3448 6.06754 30.8279 5.66967 31.1406C5.2718 31.4816 4.81709 31.6521 4.30554 31.6521C3.79399 31.6521 3.35349 31.4816 2.98404 31.1406C2.61458 30.8279 2.44407 30.3306 2.47249 29.6485Z" fill="#FF0066"/>
</svg>
