<svg width="102" height="92" viewBox="0 0 102 92" fill="none" xmlns="http://www.w3.org/2000/svg">
<g clip-path="url(#clip0_298_368)">
<path d="M13.7706 85.0275L13.3443 85.0561C12.4851 85.1919 11.7982 85.5897 11.2833 86.2495C10.7782 87.0558 10.5599 87.6958 10.6284 88.1694C10.5599 88.643 10.7779 89.2832 11.2833 90.0896C11.7982 90.7491 12.4854 91.1469 13.3443 91.283L13.7706 91.3116L72.1758 91.3122C71.4003 90.3434 71.1165 88.2484 71.3242 85.0275H13.7706Z" fill="#C3E0F7"/>
<path d="M0 77.5413V24.399C0 22.6635 1.40673 21.2568 3.14218 21.2568C4.87764 21.2568 6.28437 22.6635 6.28437 24.399V77.541C6.28437 79.2764 4.87764 80.6832 3.14218 80.6832C1.40673 80.6832 0 79.2764 0 77.5413Z" fill="#C3E0F7"/>
<path d="M13.7709 10.6284H24.3993C26.1348 10.6287 27.5415 12.0357 27.5412 13.7709C27.5409 15.5061 26.1345 16.9131 24.399 16.9128H13.7706C12.0352 16.9125 10.6284 15.5055 10.6287 13.7703C10.6287 12.0349 12.0354 10.6281 13.7709 10.6284Z" fill="#C3E0F7"/>
<path d="M35.0274 0H56.2842C58.0196 0.000291429 59.4264 1.40702 59.4264 3.14247C59.4264 4.87793 58.0196 6.28466 56.2842 6.28466H35.0274C33.2919 6.28437 31.8852 4.87764 31.8852 3.14218C31.8852 1.40673 33.2922 0 35.0274 0Z" fill="#C3E0F7"/>
<path d="M66.9129 10.6284H77.5413C79.2768 10.6287 80.6835 12.0357 80.6832 13.7709C80.6832 15.5063 79.2762 16.9131 77.541 16.9128H66.9126C65.1772 16.9125 63.7705 15.5055 63.7708 13.7703C63.771 12.0351 65.1778 10.6281 66.9129 10.6284Z" fill="#C3E0F7"/>
<path d="M88.1696 21.2568C86.4342 21.2568 85.0275 22.6635 85.0275 24.399V50.9187C85.9495 50.3775 87.0235 50.0674 88.1696 50.0674C89.3158 50.0674 90.3897 50.3778 91.3118 50.9187V24.399C91.3118 22.6635 89.9051 21.2568 88.1696 21.2568Z" fill="#C3E0F7"/>
<path d="M13.5861 91.3063L11.3555 91.1752C11.2104 91.1667 11.0661 91.1481 10.9239 91.1195L8.9556 90.7258C8.78104 90.6908 8.60997 90.6413 8.44385 90.5775L6.73812 89.9215C6.54287 89.8463 6.35548 89.7519 6.17916 89.6397L4.73572 88.7211C4.54221 88.5981 4.36298 88.4541 4.20095 88.2921L3.02008 87.1112C2.85804 86.9492 2.71408 86.7697 2.5911 86.5765L1.67251 85.133C1.56031 84.9564 1.46589 84.7693 1.3907 84.574L0.734695 82.8683C0.670873 82.7022 0.621038 82.5311 0.586358 82.3566L0.192638 80.3883C0.164078 80.2457 0.145718 80.1015 0.136975 79.9567L0.0058326 77.7261C-0.0961674 75.9938 1.22575 74.5067 2.958 74.4049C4.69026 74.3029 6.17742 75.6249 6.27912 77.3571L6.41027 79.5877L6.3546 79.1561L6.74832 81.1244L6.59999 80.6127L7.25599 82.3184L6.97418 81.7594L7.89276 83.2029L7.46378 82.6681L8.64465 83.849L8.10988 83.42L9.55332 84.3386L8.99436 84.0568L10.7001 84.7128L10.1883 84.5644L12.1567 84.9581L11.725 84.9025L13.9556 85.0336C15.6879 85.1356 17.0098 86.6225 16.9078 88.3548C16.8058 90.087 15.3189 91.4089 13.5867 91.3069L13.5861 91.3063Z" fill="#C3E0F7"/>
<path d="M0.00556097 24.2145L0.136704 21.9839C0.145155 21.8388 0.163807 21.6945 0.192367 21.5523L0.586087 19.584C0.621058 19.4095 0.670601 19.2384 0.734424 19.0723L1.39043 17.3665C1.46562 17.1713 1.56004 16.9842 1.67224 16.8076L2.59082 15.3641C2.71381 15.1706 2.85777 14.9914 3.01981 14.8294L4.20068 13.6485C4.36271 13.4865 4.54223 13.3425 4.73545 13.2195L6.17889 12.3009C6.3555 12.1887 6.54259 12.0943 6.73785 12.0191L8.44358 11.3631C8.6097 11.2993 8.78077 11.2495 8.95533 11.2148L10.9236 10.8211C11.0661 10.7925 11.2104 10.7741 11.3552 10.7654L13.5858 10.6343C15.3181 10.5323 16.8053 11.8542 16.907 13.5864C17.0087 15.3187 15.687 16.8058 13.9548 16.9075L11.7242 17.0387L12.1558 16.983L10.1875 17.3767L10.6992 17.2284L8.99351 17.8844L9.55247 17.6026L8.10902 18.5212L8.6438 18.0922L7.46293 19.2731L7.89191 18.7383L6.97333 20.1817L7.25514 19.6228L6.59913 21.3285L6.74747 20.8168L6.35375 22.7851L6.40941 22.3535L6.27827 24.5841C6.17627 26.3163 4.6894 27.6382 2.95715 27.5362C1.2249 27.4342 -0.0970219 25.9474 0.00497811 24.2151L0.00556097 24.2145Z" fill="#C3E0F7"/>
<path d="M21.2623 13.5861L21.3935 11.3555C21.4019 11.2104 21.4206 11.0661 21.4492 10.9239L21.8429 8.95562C21.8778 8.78105 21.9274 8.60999 21.9912 8.44387L22.6472 6.73814C22.7224 6.54288 22.8168 6.35579 22.929 6.17918L23.8476 4.73573C23.9706 4.54223 24.1146 4.363 24.2766 4.20096L25.4575 3.02009C25.6195 2.85806 25.799 2.7141 25.9922 2.59111L27.4357 1.67253C27.6123 1.56033 27.7994 1.46591 27.9946 1.39072L29.7004 0.734712C29.8665 0.670889 30.0376 0.621055 30.2121 0.586375L32.1804 0.192655C32.3229 0.164095 32.4672 0.145735 32.612 0.136992L34.8429 0.00555794C36.5752 -0.0964421 38.0623 1.22548 38.164 2.95773C38.266 4.68998 36.9441 6.17714 35.2119 6.27885L32.9813 6.40999L33.4129 6.35433L31.4446 6.74805L31.9563 6.59971L30.2506 7.25572L30.8095 6.97391L29.3661 7.89249L29.9009 7.46351L28.72 8.64437L29.149 8.1096L28.2304 9.55305L28.5122 8.99409L27.8562 10.6998L28.0045 10.1881L27.6108 12.1564L27.6665 11.7248L27.5353 13.9554C27.4333 15.6876 25.9465 17.0095 24.2142 16.9075C22.482 16.8055 21.1601 15.3187 21.2621 13.5864L21.2623 13.5861Z" fill="#C3E0F7"/>
<path d="M56.469 0.00553045L58.6995 0.136673C58.8447 0.145125 58.9889 0.163776 59.1312 0.192336L61.0995 0.586056C61.274 0.621028 61.4451 0.67057 61.6112 0.734393L63.3169 1.3904C63.5122 1.46559 63.6996 1.56001 63.8759 1.67221L65.3193 2.59079C65.5129 2.71378 65.6921 2.85774 65.8541 3.01978L67.035 4.20064C67.197 4.36268 67.341 4.5422 67.464 4.73542L68.3826 6.17886C68.4948 6.35547 68.5892 6.54256 68.6644 6.73782L69.3204 8.44355C69.3842 8.60967 69.434 8.78074 69.4687 8.9553L69.8624 10.9236C69.891 11.0661 69.9093 11.2104 69.9181 11.3552L70.0492 13.5858C70.1512 15.3181 68.8293 16.8052 67.0971 16.9069C65.3648 17.0089 63.8776 15.687 63.7759 13.9548L63.6448 11.7242L63.7005 12.1558L63.3067 10.1875L63.4551 10.6992L62.7991 8.99348L63.0809 9.55244L62.1623 8.10899L62.5913 8.64376L61.4104 7.4629L61.9452 7.89188L60.5017 6.9733L61.0607 7.25511L59.355 6.5991L59.8667 6.74744L57.8984 6.35372L58.33 6.40938L56.0994 6.27824C54.3672 6.17624 53.0453 4.68937 53.1473 2.95712C53.2493 1.22487 54.7361 -0.0970524 56.4684 0.00494759L56.469 0.00553045Z" fill="#C3E0F7"/>
<path d="M77.7258 10.6339L79.9564 10.7651C80.1015 10.7735 80.2458 10.7922 80.388 10.8208L82.3563 11.2145C82.5309 11.2494 82.7019 11.299 82.868 11.3628L84.5738 12.0188C84.769 12.094 84.9561 12.1884 85.1327 12.3006L86.5762 13.2192C86.7697 13.3422 86.9489 13.4862 87.111 13.6482L88.2918 14.8291C88.4539 14.9911 88.5978 15.1706 88.7208 15.3638L89.6394 16.8073C89.7516 16.9839 89.846 17.171 89.9212 17.3662L90.5772 19.072C90.641 19.2381 90.6909 19.4092 90.7255 19.5837L91.1193 21.552C91.1478 21.6945 91.1662 21.8388 91.1749 21.9836L91.3061 24.2142C91.4081 25.9465 90.0861 27.4336 88.3539 27.5353C86.6216 27.6373 85.1345 26.3154 85.0328 24.5832L84.9016 22.3526L84.9573 22.7842L84.5636 20.8159L84.7119 21.3276L84.0559 19.6219L84.3377 20.1809L83.4191 18.7374L83.8481 19.2722L82.6673 18.0913L83.202 18.5203L81.7586 17.6017L82.3175 17.8835L80.6118 17.2275L81.1236 17.3759L79.1552 16.9821L79.5868 17.0378L77.3563 16.9067C75.624 16.8047 74.3021 15.3178 74.4041 13.5855C74.5061 11.8533 75.993 10.5314 77.7252 10.6334L77.7258 10.6339Z" fill="#C3E0F7"/>
<path d="M70.0548 45.6558C70.0548 59.1312 59.1309 70.0548 45.6558 70.0548C32.1807 70.0548 21.2568 59.1312 21.2568 45.6558C21.2568 32.1804 32.1807 21.2568 45.6558 21.2568C59.1309 21.2568 70.0548 32.1804 70.0548 45.6558ZM63.7707 45.6558C63.7707 35.6513 55.6606 27.5412 45.6561 27.5412C35.6517 27.5412 27.5415 35.6513 27.5415 45.6558C27.5415 55.6602 35.6517 63.7704 45.6561 63.7704C55.6606 63.7704 63.7707 55.6602 63.7707 45.6558Z" fill="#C3E0F7"/>
<path d="M80.7432 77.5413V88.1697C80.7432 89.9381 79.3097 91.3716 77.5413 91.3716C75.7729 91.3716 74.3394 89.9381 74.3394 88.1697V77.5413C74.3394 75.7729 75.7729 74.3394 77.5413 74.3394C79.3097 74.3394 80.7432 75.7729 80.7432 77.5413Z" fill="#C3E0F7"/>
<path d="M77.5413 84.9675H98.7981C100.566 84.9675 102 86.401 102 88.1697C102 89.9384 100.566 91.3716 98.7981 91.3716H77.5413C75.7729 91.3716 74.3394 89.9378 74.3394 88.1697C74.3394 86.4016 75.7729 84.9678 77.5413 84.9678V84.9675Z" fill="#C3E0F7"/>
<path d="M95.5958 88.1697V77.5413C95.5958 75.7729 97.0294 74.3394 98.7978 74.3394C100.566 74.3394 102 75.7729 102 77.5413V88.1697C102 89.9381 100.566 91.3716 98.7978 91.3716C97.0294 91.3716 95.5958 89.9381 95.5958 88.1697Z" fill="#C3E0F7"/>
<path d="M84.9674 77.5413V56.2845C84.9674 54.5161 86.4009 53.0826 88.1693 53.0826C89.9377 53.0826 91.3713 54.5161 91.3713 56.2845V77.5413C91.3713 79.3097 89.9377 80.7432 88.1693 80.7432C86.4009 80.7432 84.9674 79.3097 84.9674 77.5413Z" fill="#C3E0F7"/>
<path d="M75.2769 64.6485L85.9053 54.0201C87.1558 52.7696 89.1833 52.7696 90.4335 54.0201C91.684 55.2706 91.684 57.2978 90.4335 58.5483L79.8051 69.1767C78.5546 70.4272 76.5274 70.4272 75.2769 69.1767C74.0264 67.9262 74.0264 65.899 75.2769 64.6485Z" fill="#C3E0F7"/>
<path d="M90.4338 54.0201L101.062 64.6485C102.313 65.899 102.313 67.9265 101.062 69.1767C99.8116 70.4269 97.7842 70.4272 96.5339 69.1767L85.9055 58.5483C84.655 57.2978 84.655 55.2706 85.9055 54.0201C87.1561 52.7696 89.1835 52.7696 90.4338 54.0201Z" fill="#C3E0F7"/>
</g>
<defs>
<clipPath id="clip0_298_368">
<rect width="102" height="91.3716" fill="white"/>
</clipPath>
</defs>
</svg>
